<svg width="678" height="650" viewBox="0 0 678 650" fill="none" xmlns="http://www.w3.org/2000/svg">
<rect width="678" height="650" fill="white"/>
<path d="M309.56 18.84H314.18C314.993 18.84 315.727 18.9133 316.38 19.06C317.033 19.2067 317.593 19.4467 318.06 19.78C318.527 20.1133 318.887 20.54 319.14 21.06C319.393 21.58 319.52 22.2067 319.52 22.94C319.52 23.7267 319.373 24.3867 319.08 24.92C318.787 25.4533 318.387 25.8867 317.88 26.22C317.387 26.54 316.807 26.7733 316.14 26.92C315.473 27.0667 314.767 27.14 314.02 27.14H312.08V33H309.56V18.84ZM313.84 25.02C314.253 25.02 314.647 24.9933 315.02 24.94C315.393 24.8733 315.727 24.7667 316.02 24.62C316.313 24.46 316.547 24.2467 316.72 23.98C316.893 23.7133 316.98 23.3667 316.98 22.94C316.98 22.5267 316.893 22.1933 316.72 21.94C316.547 21.6733 316.313 21.4667 316.02 21.32C315.74 21.1733 315.413 21.08 315.04 21.04C314.68 20.9867 314.307 20.96 313.92 20.96H312.08V25.02H313.84ZM321.199 23.4H323.599V33H321.199V23.4ZM320.859 20.14C320.859 19.7533 320.999 19.42 321.279 19.14C321.572 18.8467 321.939 18.7 322.379 18.7C322.819 18.7 323.185 18.84 323.479 19.12C323.785 19.3867 323.939 19.7267 323.939 20.14C323.939 20.5533 323.785 20.9 323.479 21.18C323.185 21.4467 322.819 21.58 322.379 21.58C321.939 21.58 321.572 21.44 321.279 21.16C320.999 20.8667 320.859 20.5267 320.859 20.14ZM325.13 25.32V23.4H326.81V20.62H329.17V23.4H331.57V25.32H329.17V29.78C329.17 30.2067 329.244 30.56 329.39 30.84C329.55 31.12 329.897 31.26 330.43 31.26C330.59 31.26 330.764 31.2467 330.95 31.22C331.137 31.18 331.304 31.1267 331.45 31.06L331.53 32.94C331.317 33.02 331.064 33.08 330.77 33.12C330.477 33.1733 330.197 33.2 329.93 33.2C329.29 33.2 328.77 33.1133 328.37 32.94C327.97 32.7533 327.65 32.5067 327.41 32.2C327.184 31.88 327.024 31.52 326.93 31.12C326.85 30.7067 326.81 30.2667 326.81 29.8V25.32H325.13ZM339.867 26.06C339.681 25.7933 339.401 25.5733 339.027 25.4C338.654 25.2133 338.274 25.12 337.887 25.12C337.447 25.12 337.061 25.2133 336.727 25.4C336.394 25.5733 336.114 25.8067 335.887 26.1C335.674 26.3933 335.514 26.7267 335.407 27.1C335.301 27.46 335.247 27.8267 335.247 28.2C335.247 28.5733 335.301 28.9467 335.407 29.32C335.527 29.68 335.701 30.0067 335.927 30.3C336.154 30.5933 336.434 30.8333 336.767 31.02C337.114 31.1933 337.514 31.28 337.967 31.28C338.341 31.28 338.714 31.2067 339.087 31.06C339.461 30.9133 339.761 30.7 339.987 30.42L341.487 31.94C341.087 32.3667 340.574 32.7 339.947 32.94C339.334 33.1667 338.667 33.28 337.947 33.28C337.241 33.28 336.567 33.1667 335.927 32.94C335.301 32.7133 334.747 32.38 334.267 31.94C333.801 31.5 333.427 30.9667 333.147 30.34C332.881 29.7133 332.747 29 332.747 28.2C332.747 27.4267 332.881 26.7267 333.147 26.1C333.427 25.4733 333.801 24.94 334.267 24.5C334.734 24.06 335.274 23.72 335.887 23.48C336.514 23.24 337.181 23.12 337.887 23.12C338.594 23.12 339.274 23.2533 339.927 23.52C340.594 23.7867 341.121 24.1533 341.507 24.62L339.867 26.06ZM348.413 23.12C349.039 23.12 349.573 23.2333 350.013 23.46C350.466 23.6733 350.833 23.96 351.113 24.32C351.406 24.68 351.619 25.0933 351.753 25.56C351.886 26.0267 351.953 26.5067 351.953 27V33H349.553V27.72C349.553 27.44 349.533 27.1533 349.493 26.86C349.453 26.5533 349.366 26.28 349.233 26.04C349.113 25.7867 348.933 25.58 348.693 25.42C348.466 25.26 348.159 25.18 347.773 25.18C347.386 25.18 347.053 25.2533 346.773 25.4C346.493 25.5467 346.259 25.7467 346.073 26C345.886 26.24 345.746 26.5133 345.653 26.82C345.559 27.1267 345.513 27.44 345.513 27.76V33H343.113V17.88H345.513V24.74H345.553C345.646 24.54 345.779 24.3467 345.953 24.16C346.139 23.96 346.353 23.7867 346.593 23.64C346.833 23.48 347.106 23.3533 347.413 23.26C347.719 23.1667 348.053 23.12 348.413 23.12ZM363.953 25.92V21.52H365.993V25.92H370.393V27.96H365.993V32.36H363.953V27.96H359.553V25.92H363.953Z" fill="black"/>
<path d="M312.56 628.84H317.18C317.993 628.84 318.727 628.913 319.38 629.06C320.033 629.207 320.593 629.447 321.06 629.78C321.527 630.113 321.887 630.54 322.14 631.06C322.393 631.58 322.52 632.207 322.52 632.94C322.52 633.727 322.373 634.387 322.08 634.92C321.787 635.453 321.387 635.887 320.88 636.22C320.387 636.54 319.807 636.773 319.14 636.92C318.473 637.067 317.767 637.14 317.02 637.14H315.08V643H312.56V628.84ZM316.84 635.02C317.253 635.02 317.647 634.993 318.02 634.94C318.393 634.873 318.727 634.767 319.02 634.62C319.313 634.46 319.547 634.247 319.72 633.98C319.893 633.713 319.98 633.367 319.98 632.94C319.98 632.527 319.893 632.193 319.72 631.94C319.547 631.673 319.313 631.467 319.02 631.32C318.74 631.173 318.413 631.08 318.04 631.04C317.68 630.987 317.307 630.96 316.92 630.96H315.08V635.02H316.84ZM324.199 633.4H326.599V643H324.199V633.4ZM323.859 630.14C323.859 629.753 323.999 629.42 324.279 629.14C324.572 628.847 324.939 628.7 325.379 628.7C325.819 628.7 326.185 628.84 326.479 629.12C326.785 629.387 326.939 629.727 326.939 630.14C326.939 630.553 326.785 630.9 326.479 631.18C326.185 631.447 325.819 631.58 325.379 631.58C324.939 631.58 324.572 631.44 324.279 631.16C323.999 630.867 323.859 630.527 323.859 630.14ZM328.13 635.32V633.4H329.81V630.62H332.17V633.4H334.57V635.32H332.17V639.78C332.17 640.207 332.244 640.56 332.39 640.84C332.55 641.12 332.897 641.26 333.43 641.26C333.59 641.26 333.764 641.247 333.95 641.22C334.137 641.18 334.304 641.127 334.45 641.06L334.53 642.94C334.317 643.02 334.064 643.08 333.77 643.12C333.477 643.173 333.197 643.2 332.93 643.2C332.29 643.2 331.77 643.113 331.37 642.94C330.97 642.753 330.65 642.507 330.41 642.2C330.184 641.88 330.024 641.52 329.93 641.12C329.85 640.707 329.81 640.267 329.81 639.8V635.32H328.13ZM342.867 636.06C342.681 635.793 342.401 635.573 342.027 635.4C341.654 635.213 341.274 635.12 340.887 635.12C340.447 635.12 340.061 635.213 339.727 635.4C339.394 635.573 339.114 635.807 338.887 636.1C338.674 636.393 338.514 636.727 338.407 637.1C338.301 637.46 338.247 637.827 338.247 638.2C338.247 638.573 338.301 638.947 338.407 639.32C338.527 639.68 338.701 640.007 338.927 640.3C339.154 640.593 339.434 640.833 339.767 641.02C340.114 641.193 340.514 641.28 340.967 641.28C341.341 641.28 341.714 641.207 342.087 641.06C342.461 640.913 342.761 640.7 342.987 640.42L344.487 641.94C344.087 642.367 343.574 642.7 342.947 642.94C342.334 643.167 341.667 643.28 340.947 643.28C340.241 643.28 339.567 643.167 338.927 642.94C338.301 642.713 337.747 642.38 337.267 641.94C336.801 641.5 336.427 640.967 336.147 640.34C335.881 639.713 335.747 639 335.747 638.2C335.747 637.427 335.881 636.727 336.147 636.1C336.427 635.473 336.801 634.94 337.267 634.5C337.734 634.06 338.274 633.72 338.887 633.48C339.514 633.24 340.181 633.12 340.887 633.12C341.594 633.12 342.274 633.253 342.927 633.52C343.594 633.787 344.121 634.153 344.507 634.62L342.867 636.06ZM351.413 633.12C352.039 633.12 352.573 633.233 353.013 633.46C353.466 633.673 353.833 633.96 354.113 634.32C354.406 634.68 354.619 635.093 354.753 635.56C354.886 636.027 354.953 636.507 354.953 637V643H352.553V637.72C352.553 637.44 352.533 637.153 352.493 636.86C352.453 636.553 352.366 636.28 352.233 636.04C352.113 635.787 351.933 635.58 351.693 635.42C351.466 635.26 351.159 635.18 350.773 635.18C350.386 635.18 350.053 635.253 349.773 635.4C349.493 635.547 349.259 635.747 349.073 636C348.886 636.24 348.746 636.513 348.653 636.82C348.559 637.127 348.513 637.44 348.513 637.76V643H346.113V627.88H348.513V634.74H348.553C348.646 634.54 348.779 634.347 348.953 634.16C349.139 633.96 349.353 633.787 349.593 633.64C349.833 633.48 350.106 633.353 350.413 633.26C350.719 633.167 351.053 633.12 351.413 633.12ZM366.913 639.1H362.113V637.06H366.913V639.1Z" fill="black"/>
<rect x="64" y="55" width="552" height="551" fill="url(#paint0_linear_1420_1581)"/>
<path d="M71.84 410.44V405.42C71.84 404.5 71.96 403.573 72.2 402.64C72.44 401.707 72.84 400.867 73.4 400.12C73.9467 399.373 74.6733 398.767 75.58 398.3C76.4733 397.833 77.5867 397.6 78.92 397.6C80.16 397.6 81.2267 397.833 82.12 398.3C83.0133 398.767 83.7467 399.373 84.32 400.12C84.8933 400.867 85.32 401.707 85.6 402.64C85.8667 403.573 86 404.5 86 405.42V410.44H71.84ZM83.8 405.82C83.8 405.167 83.7267 404.513 83.58 403.86C83.42 403.207 83.16 402.62 82.8 402.1C82.4267 401.567 81.9267 401.133 81.3 400.8C80.6733 400.467 79.88 400.3 78.92 400.3C77.9067 400.3 77.08 400.467 76.44 400.8C75.8 401.133 75.3 401.567 74.94 402.1C74.58 402.62 74.3333 403.207 74.2 403.86C74.0667 404.513 74 405.167 74 405.82V407.92H83.8V405.82ZM84.78 389.327V389.387C85.2067 389.627 85.56 390.013 85.84 390.547C86.1067 391.08 86.24 391.687 86.24 392.367C86.24 392.753 86.1867 393.16 86.08 393.587C85.9867 394 85.8267 394.387 85.6 394.747C85.36 395.093 85.0533 395.387 84.68 395.627C84.2933 395.853 83.82 395.967 83.26 395.967C82.54 395.967 81.9667 395.767 81.54 395.367C81.1133 394.953 80.7867 394.427 80.56 393.787C80.3333 393.147 80.1867 392.44 80.12 391.667C80.04 390.88 80 390.113 80 389.367H79.76C79.16 389.367 78.72 389.587 78.44 390.027C78.1467 390.453 78 390.967 78 391.567C78 392.073 78.1067 392.56 78.32 393.027C78.5333 393.493 78.7933 393.88 79.1 394.187L77.64 395.427C77.1333 394.88 76.7533 394.253 76.5 393.547C76.2467 392.827 76.12 392.1 76.12 391.367C76.12 390.513 76.24 389.813 76.48 389.267C76.72 388.707 77.0333 388.267 77.42 387.947C77.8067 387.627 78.24 387.407 78.72 387.287C79.2 387.153 79.68 387.087 80.16 387.087H86V389.327H84.78ZM81.62 389.367V389.907C81.62 390.293 81.64 390.7 81.68 391.127C81.7067 391.553 81.78 391.947 81.9 392.307C82.0067 392.667 82.1667 392.967 82.38 393.207C82.58 393.447 82.86 393.567 83.22 393.567C83.4467 393.567 83.64 393.52 83.8 393.427C83.9467 393.32 84.0667 393.187 84.16 393.027C84.2533 392.867 84.32 392.687 84.36 392.487C84.4 392.287 84.42 392.087 84.42 391.887C84.42 391.06 84.2 390.433 83.76 390.007C83.32 389.58 82.72 389.367 81.96 389.367H81.62ZM76.4 384.29V381.99H78V381.95C77.44 381.684 76.9867 381.31 76.64 380.83C76.2933 380.35 76.12 379.79 76.12 379.15C76.12 379.057 76.1267 378.957 76.14 378.85C76.14 378.744 76.1533 378.65 76.18 378.57H78.38C78.34 378.73 78.3133 378.87 78.3 378.99C78.2867 379.097 78.28 379.204 78.28 379.31C78.28 379.857 78.38 380.297 78.58 380.63C78.78 380.964 79.02 381.224 79.3 381.41C79.58 381.597 79.8667 381.724 80.16 381.79C80.4533 381.857 80.6867 381.89 80.86 381.89H86V384.29H76.4ZM70.88 376.965V374.565H80.44V374.505L76.4 370.865V367.785L80.74 371.945L86 367.525V370.705L81.08 374.505V374.565H86V376.965H70.88ZM71.84 361.026V356.106C71.84 355.439 71.9133 354.793 72.06 354.166C72.1933 353.539 72.42 352.986 72.74 352.506C73.06 352.013 73.48 351.619 74 351.326C74.52 351.033 75.1533 350.886 75.9 350.886C76.9267 350.886 77.7667 351.179 78.42 351.766C79.06 352.339 79.4933 353.126 79.72 354.126L86 350.346V353.386L80 356.666V358.506H86V361.026H71.84ZM77.94 356.446C77.94 356.086 77.9133 355.726 77.86 355.366C77.8067 355.006 77.7067 354.686 77.56 354.406C77.4133 354.113 77.2067 353.873 76.94 353.686C76.66 353.499 76.3067 353.406 75.88 353.406C75.4933 353.406 75.18 353.493 74.94 353.666C74.6867 353.839 74.4867 354.059 74.34 354.326C74.1933 354.593 74.0933 354.899 74.04 355.246C73.9867 355.579 73.96 355.906 73.96 356.226V358.506H77.94V356.446ZM80.24 342.042C79.9333 342.042 79.64 342.089 79.36 342.182C79.08 342.262 78.8333 342.396 78.62 342.582C78.4067 342.769 78.24 343.009 78.12 343.302C77.9867 343.582 77.92 343.916 77.92 344.302C77.92 345.022 78.14 345.636 78.58 346.142C79.0067 346.636 79.56 346.909 80.24 346.962V342.042ZM81.32 339.642C81.4267 339.642 81.5333 339.642 81.64 339.642C81.7467 339.642 81.8533 339.649 81.96 339.662V346.962C82.3067 346.936 82.6267 346.849 82.92 346.702C83.2 346.542 83.4467 346.336 83.66 346.082C83.86 345.829 84.02 345.542 84.14 345.222C84.26 344.902 84.32 344.569 84.32 344.222C84.32 343.622 84.2133 343.116 84 342.702C83.7733 342.289 83.4667 341.949 83.08 341.682L84.36 340.082C85.64 341.029 86.28 342.402 86.28 344.202C86.28 344.949 86.1667 345.636 85.94 346.262C85.7 346.889 85.3667 347.436 84.94 347.902C84.5133 348.356 83.9933 348.716 83.38 348.982C82.7533 349.236 82.0467 349.362 81.26 349.362C80.4867 349.362 79.7867 349.236 79.16 348.982C78.52 348.716 77.98 348.356 77.54 347.902C77.0867 347.449 76.74 346.916 76.5 346.302C76.2467 345.676 76.12 345.002 76.12 344.282C76.12 343.616 76.2333 343.002 76.46 342.442C76.6733 341.869 77 341.376 77.44 340.962C77.8667 340.549 78.4067 340.229 79.06 340.002C79.7 339.762 80.4533 339.642 81.32 339.642ZM78.96 332.058C78.68 332.271 78.44 332.564 78.24 332.938C78.0267 333.311 77.92 333.718 77.92 334.158C77.92 334.544 78 334.898 78.16 335.218C78.32 335.538 78.5867 335.698 78.96 335.698C79.3333 335.698 79.6 335.524 79.76 335.178C79.9067 334.818 80.06 334.298 80.22 333.618C80.3 333.258 80.4067 332.898 80.54 332.538C80.6733 332.164 80.8533 331.831 81.08 331.538C81.2933 331.231 81.5667 330.984 81.9 330.798C82.22 330.611 82.6133 330.518 83.08 330.518C83.6667 330.518 84.1667 330.631 84.58 330.858C84.98 331.071 85.3067 331.364 85.56 331.738C85.8133 332.098 85.9933 332.524 86.1 333.018C86.22 333.498 86.28 333.998 86.28 334.518C86.28 335.264 86.1467 335.991 85.88 336.698C85.6 337.404 85.2067 337.991 84.7 338.458L83.22 336.878C83.5667 336.611 83.8533 336.264 84.08 335.838C84.3067 335.411 84.42 334.938 84.42 334.418C84.42 334.244 84.4 334.071 84.36 333.898C84.32 333.711 84.26 333.544 84.18 333.398C84.0867 333.238 83.9667 333.111 83.82 333.018C83.6733 332.924 83.4933 332.878 83.28 332.878C82.88 332.878 82.5933 333.064 82.42 333.438C82.2467 333.798 82.0733 334.344 81.9 335.078C81.82 335.438 81.72 335.791 81.6 336.138C81.4667 336.471 81.3 336.771 81.1 337.038C80.8867 337.304 80.6267 337.518 80.32 337.678C80.0133 337.838 79.6333 337.918 79.18 337.918C78.6467 337.918 78.1867 337.811 77.8 337.598C77.4133 337.371 77.1 337.078 76.86 336.718C76.6067 336.358 76.42 335.951 76.3 335.498C76.18 335.044 76.12 334.578 76.12 334.098C76.12 333.404 76.24 332.731 76.48 332.078C76.72 331.411 77.0867 330.884 77.58 330.498L78.96 332.058ZM81.16 328.991C80.4 328.991 79.7133 328.858 79.1 328.591C78.4733 328.311 77.94 327.938 77.5 327.471C77.06 327.004 76.72 326.451 76.48 325.811C76.24 325.171 76.12 324.491 76.12 323.771C76.12 323.051 76.24 322.371 76.48 321.731C76.72 321.091 77.06 320.538 77.5 320.071C77.94 319.604 78.4733 319.238 79.1 318.971C79.7133 318.691 80.4 318.551 81.16 318.551C81.92 318.551 82.6133 318.691 83.24 318.971C83.8667 319.238 84.4067 319.604 84.86 320.071C85.3 320.538 85.6467 321.091 85.9 321.731C86.1533 322.371 86.28 323.051 86.28 323.771C86.28 324.491 86.1533 325.171 85.9 325.811C85.6467 326.451 85.3 327.004 84.86 327.471C84.4067 327.938 83.8667 328.311 83.24 328.591C82.6133 328.858 81.92 328.991 81.16 328.991ZM81.16 326.551C81.5333 326.551 81.9067 326.498 82.28 326.391C82.6533 326.271 82.9867 326.098 83.28 325.871C83.5733 325.644 83.8133 325.358 84 325.011C84.1867 324.664 84.28 324.251 84.28 323.771C84.28 323.291 84.1867 322.878 84 322.531C83.8133 322.184 83.5733 321.898 83.28 321.671C82.9867 321.444 82.6533 321.278 82.28 321.171C81.9067 321.051 81.5333 320.991 81.16 320.991C80.7867 320.991 80.42 321.051 80.06 321.171C79.6867 321.278 79.3533 321.444 79.06 321.671C78.7667 321.898 78.5333 322.184 78.36 322.531C78.1733 322.878 78.08 323.291 78.08 323.771C78.08 324.251 78.1733 324.664 78.36 325.011C78.5333 325.358 78.7667 325.644 79.06 325.871C79.3533 326.098 79.6867 326.271 80.06 326.391C80.42 326.498 80.7867 326.551 81.16 326.551ZM76.4 316.224V313.944H77.94V313.904C77.46 313.691 77.04 313.324 76.68 312.804C76.3067 312.271 76.12 311.644 76.12 310.924C76.12 310.297 76.2333 309.764 76.46 309.324C76.6733 308.871 76.96 308.504 77.32 308.224C77.68 307.931 78.0933 307.717 78.56 307.584C79.0267 307.451 79.5067 307.384 80 307.384H86V309.784H80.68C80.4 309.784 80.1067 309.804 79.8 309.844C79.4933 309.884 79.22 309.971 78.98 310.104C78.7267 310.237 78.52 310.424 78.36 310.664C78.2 310.891 78.12 311.197 78.12 311.584C78.12 311.971 78.2 312.304 78.36 312.584C78.5067 312.864 78.7 313.097 78.94 313.284C79.18 313.457 79.46 313.591 79.78 313.684C80.0867 313.777 80.4 313.824 80.72 313.824H86V316.224H76.4ZM84.78 298.623V298.683C85.2067 298.923 85.56 299.31 85.84 299.843C86.1067 300.377 86.24 300.983 86.24 301.663C86.24 302.05 86.1867 302.457 86.08 302.883C85.9867 303.297 85.8267 303.683 85.6 304.043C85.36 304.39 85.0533 304.683 84.68 304.923C84.2933 305.15 83.82 305.263 83.26 305.263C82.54 305.263 81.9667 305.063 81.54 304.663C81.1133 304.25 80.7867 303.723 80.56 303.083C80.3333 302.443 80.1867 301.737 80.12 300.963C80.04 300.177 80 299.41 80 298.663H79.76C79.16 298.663 78.72 298.883 78.44 299.323C78.1467 299.75 78 300.263 78 300.863C78 301.37 78.1067 301.857 78.32 302.323C78.5333 302.79 78.7933 303.177 79.1 303.483L77.64 304.723C77.1333 304.177 76.7533 303.55 76.5 302.843C76.2467 302.123 76.12 301.397 76.12 300.663C76.12 299.81 76.24 299.11 76.48 298.563C76.72 298.003 77.0333 297.563 77.42 297.243C77.8067 296.923 78.24 296.703 78.72 296.583C79.2 296.45 79.68 296.383 80.16 296.383H86V298.623H84.78ZM81.62 298.663V299.203C81.62 299.59 81.64 299.997 81.68 300.423C81.7067 300.85 81.78 301.243 81.9 301.603C82.0067 301.963 82.1667 302.263 82.38 302.503C82.58 302.743 82.86 302.863 83.22 302.863C83.4467 302.863 83.64 302.817 83.8 302.723C83.9467 302.617 84.0667 302.483 84.16 302.323C84.2533 302.163 84.32 301.983 84.36 301.783C84.4 301.583 84.42 301.383 84.42 301.183C84.42 300.357 84.2 299.73 83.76 299.303C83.32 298.877 82.72 298.663 81.96 298.663H81.62ZM76.4 293.587V291.307H77.94V291.267C77.46 291.054 77.04 290.687 76.68 290.167C76.3067 289.634 76.12 289.007 76.12 288.287C76.12 287.661 76.2333 287.127 76.46 286.687C76.6733 286.234 76.96 285.867 77.32 285.587C77.68 285.294 78.0933 285.081 78.56 284.947C79.0267 284.814 79.5067 284.747 80 284.747H86V287.147H80.68C80.4 287.147 80.1067 287.167 79.8 287.207C79.4933 287.247 79.22 287.334 78.98 287.467C78.7267 287.601 78.52 287.787 78.36 288.027C78.2 288.254 78.12 288.561 78.12 288.947C78.12 289.334 78.2 289.667 78.36 289.947C78.5067 290.227 78.7 290.461 78.94 290.647C79.18 290.821 79.46 290.954 79.78 291.047C80.0867 291.141 80.4 291.187 80.72 291.187H86V293.587H76.4ZM79.06 275.387C78.7933 275.573 78.5733 275.853 78.4 276.227C78.2133 276.6 78.12 276.98 78.12 277.367C78.12 277.807 78.2133 278.193 78.4 278.527C78.5733 278.86 78.8067 279.14 79.1 279.367C79.3933 279.58 79.7267 279.74 80.1 279.847C80.46 279.953 80.8267 280.007 81.2 280.007C81.5733 280.007 81.9467 279.953 82.32 279.847C82.68 279.727 83.0067 279.553 83.3 279.327C83.5933 279.1 83.8333 278.82 84.02 278.487C84.1933 278.14 84.28 277.74 84.28 277.287C84.28 276.913 84.2067 276.54 84.06 276.167C83.9133 275.793 83.7 275.493 83.42 275.267L84.94 273.767C85.3667 274.167 85.7 274.68 85.94 275.307C86.1667 275.92 86.28 276.587 86.28 277.307C86.28 278.013 86.1667 278.687 85.94 279.327C85.7133 279.953 85.38 280.507 84.94 280.987C84.5 281.453 83.9667 281.827 83.34 282.107C82.7133 282.373 82 282.507 81.2 282.507C80.4267 282.507 79.7267 282.373 79.1 282.107C78.4733 281.827 77.94 281.453 77.5 280.987C77.06 280.52 76.72 279.98 76.48 279.367C76.24 278.74 76.12 278.073 76.12 277.367C76.12 276.66 76.2533 275.98 76.52 275.327C76.7867 274.66 77.1533 274.133 77.62 273.747L79.06 275.387ZM80.24 265.421C79.9333 265.421 79.64 265.468 79.36 265.561C79.08 265.641 78.8333 265.774 78.62 265.961C78.4067 266.148 78.24 266.388 78.12 266.681C77.9867 266.961 77.92 267.294 77.92 267.681C77.92 268.401 78.14 269.014 78.58 269.521C79.0067 270.014 79.56 270.288 80.24 270.341V265.421ZM81.32 263.021C81.4267 263.021 81.5333 263.021 81.64 263.021C81.7467 263.021 81.8533 263.028 81.96 263.041V270.341C82.3067 270.314 82.6267 270.228 82.92 270.081C83.2 269.921 83.4467 269.714 83.66 269.461C83.86 269.208 84.02 268.921 84.14 268.601C84.26 268.281 84.32 267.948 84.32 267.601C84.32 267.001 84.2133 266.494 84 266.081C83.7733 265.668 83.4667 265.328 83.08 265.061L84.36 263.461C85.64 264.408 86.28 265.781 86.28 267.581C86.28 268.328 86.1667 269.014 85.94 269.641C85.7 270.268 85.3667 270.814 84.94 271.281C84.5133 271.734 83.9933 272.094 83.38 272.361C82.7533 272.614 82.0467 272.741 81.26 272.741C80.4867 272.741 79.7867 272.614 79.16 272.361C78.52 272.094 77.98 271.734 77.54 271.281C77.0867 270.828 76.74 270.294 76.5 269.681C76.2467 269.054 76.12 268.381 76.12 267.661C76.12 266.994 76.2333 266.381 76.46 265.821C76.6733 265.248 77 264.754 77.44 264.341C77.8667 263.928 78.4067 263.608 79.06 263.381C79.7 263.141 80.4533 263.021 81.32 263.021Z" fill="black"/>
<path d="M604.16 256.56V262.08C604.16 262.613 604.093 263.14 603.96 263.66C603.84 264.18 603.633 264.64 603.34 265.04C603.06 265.453 602.693 265.787 602.24 266.04C601.787 266.293 601.24 266.42 600.6 266.42C599.8 266.42 599.14 266.193 598.62 265.74C598.1 265.287 597.727 264.693 597.5 263.96H597.46C597.34 264.853 596.993 265.587 596.42 266.16C595.847 266.733 595.08 267.02 594.12 267.02C593.347 267.02 592.693 266.867 592.16 266.56C591.64 266.253 591.22 265.847 590.9 265.34C590.58 264.847 590.347 264.273 590.2 263.62C590.067 262.98 590 262.327 590 261.66V256.56H604.16ZM598.4 259.08V261.32C598.4 262.16 598.567 262.8 598.9 263.24C599.233 263.68 599.707 263.9 600.32 263.9C600.96 263.9 601.413 263.673 601.68 263.22C601.947 262.767 602.08 262.06 602.08 261.1V259.08H598.4ZM592.12 259.08V261.34C592.12 261.66 592.14 262.007 592.18 262.38C592.233 262.753 592.333 263.093 592.48 263.4C592.627 263.72 592.84 263.98 593.12 264.18C593.4 264.393 593.773 264.5 594.24 264.5C594.987 264.5 595.507 264.247 595.8 263.74C596.093 263.233 596.24 262.467 596.24 261.44V259.08H592.12ZM599.6 269.389V271.689H598V271.729C598.56 271.996 599.013 272.369 599.36 272.849C599.707 273.329 599.88 273.889 599.88 274.529C599.88 274.623 599.873 274.723 599.86 274.829C599.86 274.936 599.847 275.029 599.82 275.109H597.62C597.66 274.949 597.687 274.809 597.7 274.689C597.713 274.583 597.72 274.476 597.72 274.369C597.72 273.823 597.62 273.383 597.42 273.049C597.22 272.716 596.98 272.456 596.7 272.269C596.42 272.083 596.133 271.956 595.84 271.889C595.547 271.823 595.313 271.789 595.14 271.789H590V269.389H599.6ZM599.6 276.714V279.114H590V276.714H599.6ZM602.86 276.374C603.247 276.374 603.58 276.514 603.86 276.794C604.153 277.088 604.3 277.454 604.3 277.894C604.3 278.334 604.16 278.701 603.88 278.994C603.613 279.301 603.273 279.454 602.86 279.454C602.447 279.454 602.1 279.301 601.82 278.994C601.553 278.701 601.42 278.334 601.42 277.894C601.42 277.454 601.56 277.088 601.84 276.794C602.133 276.514 602.473 276.374 602.86 276.374ZM599.6 291.786H590.86C589.993 291.786 589.213 291.679 588.52 291.466C587.813 291.253 587.22 290.919 586.74 290.466C586.247 290.026 585.867 289.466 585.6 288.786C585.333 288.106 585.2 287.299 585.2 286.366C585.2 285.979 585.233 285.566 585.3 285.126C585.367 284.699 585.467 284.273 585.6 283.846C585.733 283.433 585.9 283.033 586.1 282.646C586.3 282.259 586.527 281.913 586.78 281.606L588.64 282.986C588.2 283.453 587.867 283.979 587.64 284.566C587.4 285.153 587.28 285.746 587.28 286.346C587.28 286.919 587.367 287.399 587.54 287.786C587.7 288.186 587.927 288.499 588.22 288.726C588.513 288.966 588.86 289.133 589.26 289.226C589.66 289.333 590.1 289.386 590.58 289.386H591.28V289.346C590.813 288.999 590.453 288.553 590.2 288.006C589.96 287.473 589.84 286.873 589.84 286.206C589.84 285.486 589.973 284.833 590.24 284.246C590.507 283.659 590.867 283.159 591.32 282.746C591.773 282.346 592.3 282.033 592.9 281.806C593.513 281.579 594.16 281.466 594.84 281.466C595.533 281.466 596.187 281.573 596.8 281.786C597.413 282.013 597.947 282.326 598.4 282.726C598.853 283.139 599.213 283.633 599.48 284.206C599.747 284.793 599.88 285.446 599.88 286.166C599.88 286.846 599.74 287.479 599.46 288.066C599.18 288.653 598.747 289.119 598.16 289.466V289.506H599.6V291.786ZM597.92 286.666C597.92 286.226 597.84 285.833 597.68 285.486C597.52 285.153 597.3 284.866 597.02 284.626C596.753 284.399 596.433 284.219 596.06 284.086C595.687 283.966 595.287 283.906 594.86 283.906C594.473 283.906 594.1 283.966 593.74 284.086C593.38 284.219 593.053 284.399 592.76 284.626C592.48 284.866 592.253 285.153 592.08 285.486C591.907 285.833 591.82 286.219 591.82 286.646C591.82 287.086 591.9 287.479 592.06 287.826C592.233 288.186 592.46 288.486 592.74 288.726C593.02 288.979 593.34 289.173 593.7 289.306C594.073 289.439 594.46 289.506 594.86 289.506C595.273 289.506 595.667 289.439 596.04 289.306C596.413 289.173 596.74 288.979 597.02 288.726C597.3 288.486 597.52 288.193 597.68 287.846C597.84 287.499 597.92 287.106 597.92 286.666ZM599.88 300.003C599.88 300.629 599.767 301.163 599.54 301.603C599.327 302.056 599.04 302.423 598.68 302.703C598.32 302.996 597.907 303.209 597.44 303.343C596.973 303.476 596.493 303.543 596 303.543H590V301.143H595.28C595.56 301.143 595.847 301.123 596.14 301.083C596.447 301.043 596.72 300.956 596.96 300.823C597.213 300.703 597.42 300.523 597.58 300.283C597.74 300.056 597.82 299.749 597.82 299.363C597.82 298.976 597.747 298.643 597.6 298.363C597.453 298.083 597.253 297.849 597 297.663C596.76 297.476 596.487 297.336 596.18 297.243C595.873 297.149 595.56 297.103 595.24 297.103H590V294.703H605.12V297.103H598.26V297.143C598.46 297.236 598.653 297.369 598.84 297.543C599.04 297.729 599.213 297.943 599.36 298.183C599.52 298.423 599.647 298.696 599.74 299.003C599.833 299.309 599.88 299.643 599.88 300.003ZM597.68 304.962H599.6V306.642H602.38V309.002H599.6V311.402H597.68V309.002H593.22C592.793 309.002 592.44 309.076 592.16 309.222C591.88 309.382 591.74 309.729 591.74 310.262C591.74 310.422 591.753 310.596 591.78 310.782C591.82 310.969 591.873 311.136 591.94 311.282L590.06 311.362C589.98 311.149 589.92 310.896 589.88 310.602C589.827 310.309 589.8 310.029 589.8 309.762C589.8 309.122 589.887 308.602 590.06 308.202C590.247 307.802 590.493 307.482 590.8 307.242C591.12 307.016 591.48 306.856 591.88 306.762C592.293 306.682 592.733 306.642 593.2 306.642H597.68V304.962ZM604.16 318.259V323.179C604.16 323.846 604.087 324.493 603.94 325.119C603.807 325.746 603.58 326.299 603.26 326.779C602.94 327.273 602.52 327.666 602 327.959C601.48 328.253 600.847 328.399 600.1 328.399C599.073 328.399 598.233 328.106 597.58 327.519C596.94 326.946 596.507 326.159 596.28 325.159L590 328.939V325.899L596 322.619V320.779H590V318.259H604.16ZM598.06 322.839C598.06 323.199 598.087 323.559 598.14 323.919C598.193 324.279 598.293 324.599 598.44 324.879C598.587 325.173 598.793 325.413 599.06 325.599C599.34 325.786 599.693 325.879 600.12 325.879C600.507 325.879 600.82 325.793 601.06 325.619C601.313 325.446 601.513 325.226 601.66 324.959C601.807 324.693 601.907 324.386 601.96 324.039C602.013 323.706 602.04 323.379 602.04 323.059V320.779H598.06V322.839ZM595.76 337.243C596.067 337.243 596.36 337.196 596.64 337.103C596.92 337.023 597.167 336.89 597.38 336.703C597.593 336.516 597.76 336.276 597.88 335.983C598.013 335.703 598.08 335.37 598.08 334.983C598.08 334.263 597.86 333.65 597.42 333.143C596.993 332.65 596.44 332.376 595.76 332.323V337.243ZM594.68 339.643C594.573 339.643 594.467 339.643 594.36 339.643C594.253 339.643 594.147 339.636 594.04 339.623V332.323C593.693 332.35 593.373 332.436 593.08 332.583C592.8 332.743 592.553 332.95 592.34 333.203C592.14 333.456 591.98 333.743 591.86 334.063C591.74 334.383 591.68 334.716 591.68 335.063C591.68 335.663 591.787 336.17 592 336.583C592.227 336.996 592.533 337.336 592.92 337.603L591.64 339.203C590.36 338.256 589.72 336.883 589.72 335.083C589.72 334.336 589.833 333.65 590.06 333.023C590.3 332.396 590.633 331.85 591.06 331.383C591.487 330.93 592.007 330.57 592.62 330.303C593.247 330.05 593.953 329.923 594.74 329.923C595.513 329.923 596.213 330.05 596.84 330.303C597.48 330.57 598.02 330.93 598.46 331.383C598.913 331.836 599.26 332.37 599.5 332.983C599.753 333.61 599.88 334.283 599.88 335.003C599.88 335.67 599.767 336.283 599.54 336.843C599.327 337.416 599 337.91 598.56 338.323C598.133 338.736 597.593 339.056 596.94 339.283C596.3 339.523 595.547 339.643 594.68 339.643ZM597.04 347.227C597.32 347.014 597.56 346.721 597.76 346.347C597.973 345.974 598.08 345.567 598.08 345.127C598.08 344.741 598 344.387 597.84 344.067C597.68 343.747 597.413 343.587 597.04 343.587C596.667 343.587 596.4 343.761 596.24 344.107C596.093 344.467 595.94 344.987 595.78 345.667C595.7 346.027 595.593 346.387 595.46 346.747C595.327 347.121 595.147 347.454 594.92 347.747C594.707 348.054 594.433 348.301 594.1 348.487C593.78 348.674 593.387 348.767 592.92 348.767C592.333 348.767 591.833 348.654 591.42 348.427C591.02 348.214 590.693 347.921 590.44 347.547C590.187 347.187 590.007 346.761 589.9 346.267C589.78 345.787 589.72 345.287 589.72 344.767C589.72 344.021 589.853 343.294 590.12 342.587C590.4 341.881 590.793 341.294 591.3 340.827L592.78 342.407C592.433 342.674 592.147 343.021 591.92 343.447C591.693 343.874 591.58 344.347 591.58 344.867C591.58 345.041 591.6 345.214 591.64 345.387C591.68 345.574 591.74 345.741 591.82 345.887C591.913 346.047 592.033 346.174 592.18 346.267C592.327 346.361 592.507 346.407 592.72 346.407C593.12 346.407 593.407 346.221 593.58 345.847C593.753 345.487 593.927 344.941 594.1 344.207C594.18 343.847 594.28 343.494 594.4 343.147C594.533 342.814 594.7 342.514 594.9 342.247C595.113 341.981 595.373 341.767 595.68 341.607C595.987 341.447 596.367 341.367 596.82 341.367C597.353 341.367 597.813 341.474 598.2 341.687C598.587 341.914 598.9 342.207 599.14 342.567C599.393 342.927 599.58 343.334 599.7 343.787C599.82 344.241 599.88 344.707 599.88 345.187C599.88 345.881 599.76 346.554 599.52 347.207C599.28 347.874 598.913 348.401 598.42 348.787L597.04 347.227ZM594.84 350.294C595.6 350.294 596.287 350.427 596.9 350.694C597.527 350.974 598.06 351.347 598.5 351.814C598.94 352.281 599.28 352.834 599.52 353.474C599.76 354.114 599.88 354.794 599.88 355.514C599.88 356.234 599.76 356.914 599.52 357.554C599.28 358.194 598.94 358.747 598.5 359.214C598.06 359.681 597.527 360.047 596.9 360.314C596.287 360.594 595.6 360.734 594.84 360.734C594.08 360.734 593.387 360.594 592.76 360.314C592.133 360.047 591.593 359.681 591.14 359.214C590.7 358.747 590.353 358.194 590.1 357.554C589.847 356.914 589.72 356.234 589.72 355.514C589.72 354.794 589.847 354.114 590.1 353.474C590.353 352.834 590.7 352.281 591.14 351.814C591.593 351.347 592.133 350.974 592.76 350.694C593.387 350.427 594.08 350.294 594.84 350.294ZM594.84 352.734C594.467 352.734 594.093 352.787 593.72 352.894C593.347 353.014 593.013 353.187 592.72 353.414C592.427 353.641 592.187 353.927 592 354.274C591.813 354.621 591.72 355.034 591.72 355.514C591.72 355.994 591.813 356.407 592 356.754C592.187 357.101 592.427 357.387 592.72 357.614C593.013 357.841 593.347 358.007 593.72 358.114C594.093 358.234 594.467 358.294 594.84 358.294C595.213 358.294 595.58 358.234 595.94 358.114C596.313 358.007 596.647 357.841 596.94 357.614C597.233 357.387 597.467 357.101 597.64 356.754C597.827 356.407 597.92 355.994 597.92 355.514C597.92 355.034 597.827 354.621 597.64 354.274C597.467 353.927 597.233 353.641 596.94 353.414C596.647 353.187 596.313 353.014 595.94 352.894C595.58 352.787 595.213 352.734 594.84 352.734ZM599.6 363.061V365.341H598.06V365.381C598.54 365.594 598.96 365.961 599.32 366.481C599.693 367.014 599.88 367.641 599.88 368.361C599.88 368.988 599.767 369.521 599.54 369.961C599.327 370.414 599.04 370.781 598.68 371.061C598.32 371.354 597.907 371.568 597.44 371.701C596.973 371.834 596.493 371.901 596 371.901H590V369.501H595.32C595.6 369.501 595.893 369.481 596.2 369.441C596.507 369.401 596.78 369.314 597.02 369.181C597.273 369.048 597.48 368.861 597.64 368.621C597.8 368.394 597.88 368.088 597.88 367.701C597.88 367.314 597.8 366.981 597.64 366.701C597.493 366.421 597.3 366.188 597.06 366.001C596.82 365.828 596.54 365.694 596.22 365.601C595.913 365.508 595.6 365.461 595.28 365.461H590V363.061H599.6ZM591.22 380.662V380.602C590.793 380.362 590.44 379.975 590.16 379.442C589.893 378.908 589.76 378.302 589.76 377.622C589.76 377.235 589.813 376.828 589.92 376.402C590.013 375.988 590.173 375.602 590.4 375.242C590.64 374.895 590.947 374.602 591.32 374.362C591.707 374.135 592.18 374.022 592.74 374.022C593.46 374.022 594.033 374.222 594.46 374.622C594.887 375.035 595.213 375.562 595.44 376.202C595.667 376.842 595.813 377.548 595.88 378.322C595.96 379.108 596 379.875 596 380.622H596.24C596.84 380.622 597.28 380.402 597.56 379.962C597.853 379.535 598 379.022 598 378.422C598 377.915 597.893 377.428 597.68 376.962C597.467 376.495 597.207 376.108 596.9 375.802L598.36 374.562C598.867 375.108 599.247 375.735 599.5 376.442C599.753 377.162 599.88 377.888 599.88 378.622C599.88 379.475 599.76 380.175 599.52 380.722C599.28 381.282 598.967 381.722 598.58 382.042C598.193 382.362 597.76 382.582 597.28 382.702C596.8 382.835 596.32 382.902 595.84 382.902H590V380.662H591.22ZM594.38 380.622V380.082C594.38 379.695 594.36 379.288 594.32 378.862C594.293 378.435 594.22 378.042 594.1 377.682C593.993 377.322 593.833 377.022 593.62 376.782C593.42 376.542 593.14 376.422 592.78 376.422C592.553 376.422 592.36 376.468 592.2 376.562C592.053 376.668 591.933 376.802 591.84 376.962C591.747 377.122 591.68 377.302 591.64 377.502C591.6 377.702 591.58 377.902 591.58 378.102C591.58 378.928 591.8 379.555 592.24 379.982C592.68 380.408 593.28 380.622 594.04 380.622H594.38ZM599.6 385.698V387.978H598.06V388.018C598.54 388.231 598.96 388.598 599.32 389.118C599.693 389.651 599.88 390.278 599.88 390.998C599.88 391.624 599.767 392.158 599.54 392.598C599.327 393.051 599.04 393.418 598.68 393.698C598.32 393.991 597.907 394.204 597.44 394.338C596.973 394.471 596.493 394.538 596 394.538H590V392.138H595.32C595.6 392.138 595.893 392.118 596.2 392.078C596.507 392.038 596.78 391.951 597.02 391.818C597.273 391.684 597.48 391.498 597.64 391.258C597.8 391.031 597.88 390.724 597.88 390.338C597.88 389.951 597.8 389.618 597.64 389.338C597.493 389.058 597.3 388.824 597.06 388.638C596.82 388.464 596.54 388.331 596.22 388.238C595.913 388.144 595.6 388.098 595.28 388.098H590V385.698H599.6ZM596.94 403.898C597.207 403.712 597.427 403.432 597.6 403.058C597.787 402.685 597.88 402.305 597.88 401.918C597.88 401.478 597.787 401.092 597.6 400.758C597.427 400.425 597.193 400.145 596.9 399.918C596.607 399.705 596.273 399.545 595.9 399.438C595.54 399.332 595.173 399.278 594.8 399.278C594.427 399.278 594.053 399.332 593.68 399.438C593.32 399.558 592.993 399.732 592.7 399.958C592.407 400.185 592.167 400.465 591.98 400.798C591.807 401.145 591.72 401.545 591.72 401.998C591.72 402.372 591.793 402.745 591.94 403.118C592.087 403.492 592.3 403.792 592.58 404.018L591.06 405.518C590.633 405.118 590.3 404.605 590.06 403.978C589.833 403.365 589.72 402.698 589.72 401.978C589.72 401.272 589.833 400.598 590.06 399.958C590.287 399.332 590.62 398.778 591.06 398.298C591.5 397.832 592.033 397.458 592.66 397.178C593.287 396.912 594 396.778 594.8 396.778C595.573 396.778 596.273 396.912 596.9 397.178C597.527 397.458 598.06 397.832 598.5 398.298C598.94 398.765 599.28 399.305 599.52 399.918C599.76 400.545 599.88 401.212 599.88 401.918C599.88 402.625 599.747 403.305 599.48 403.958C599.213 404.625 598.847 405.152 598.38 405.538L596.94 403.898ZM595.76 413.864C596.067 413.864 596.36 413.817 596.64 413.724C596.92 413.644 597.167 413.511 597.38 413.324C597.593 413.137 597.76 412.897 597.88 412.604C598.013 412.324 598.08 411.991 598.08 411.604C598.08 410.884 597.86 410.271 597.42 409.764C596.993 409.271 596.44 408.997 595.76 408.944V413.864ZM594.68 416.264C594.573 416.264 594.467 416.264 594.36 416.264C594.253 416.264 594.147 416.257 594.04 416.244V408.944C593.693 408.971 593.373 409.057 593.08 409.204C592.8 409.364 592.553 409.571 592.34 409.824C592.14 410.077 591.98 410.364 591.86 410.684C591.74 411.004 591.68 411.337 591.68 411.684C591.68 412.284 591.787 412.791 592 413.204C592.227 413.617 592.533 413.957 592.92 414.224L591.64 415.824C590.36 414.877 589.72 413.504 589.72 411.704C589.72 410.957 589.833 410.271 590.06 409.644C590.3 409.017 590.633 408.471 591.06 408.004C591.487 407.551 592.007 407.191 592.62 406.924C593.247 406.671 593.953 406.544 594.74 406.544C595.513 406.544 596.213 406.671 596.84 406.924C597.48 407.191 598.02 407.551 598.46 408.004C598.913 408.457 599.26 408.991 599.5 409.604C599.753 410.231 599.88 410.904 599.88 411.624C599.88 412.291 599.767 412.904 599.54 413.464C599.327 414.037 599 414.531 598.56 414.944C598.133 415.357 597.593 415.677 596.94 415.904C596.3 416.144 595.547 416.264 594.68 416.264Z" fill="black"/>
<ellipse cx="463" cy="208" rx="102" ry="100" stroke="black" stroke-width="3" stroke-dasharray="6 6"/>
<ellipse cx="213" cy="454" rx="102" ry="100" stroke="black" stroke-width="3" stroke-dasharray="6 6"/>
<line x1="146.952" y1="373.926" x2="395.952" y2="130.926" stroke="black" stroke-width="3" stroke-dasharray="4 4"/>
<line x1="276.952" y1="527.926" x2="525.952" y2="284.926" stroke="black" stroke-width="3" stroke-dasharray="4 4"/>
<path d="M150.56 445.84H154.5L158.18 455.9H158.24L161.88 445.84H165.84V460H163.34V448.62H163.3L159 460H157.24L153 448.62H152.96V460H150.56V445.84ZM174.798 458.78H174.738C174.498 459.207 174.112 459.56 173.578 459.84C173.045 460.107 172.438 460.24 171.758 460.24C171.372 460.24 170.965 460.187 170.538 460.08C170.125 459.987 169.738 459.827 169.378 459.6C169.032 459.36 168.738 459.053 168.498 458.68C168.272 458.293 168.158 457.82 168.158 457.26C168.158 456.54 168.358 455.967 168.758 455.54C169.172 455.113 169.698 454.787 170.338 454.56C170.978 454.333 171.685 454.187 172.458 454.12C173.245 454.04 174.012 454 174.758 454V453.76C174.758 453.16 174.538 452.72 174.098 452.44C173.672 452.147 173.158 452 172.558 452C172.052 452 171.565 452.107 171.098 452.32C170.632 452.533 170.245 452.793 169.938 453.1L168.698 451.64C169.245 451.133 169.872 450.753 170.578 450.5C171.298 450.247 172.025 450.12 172.758 450.12C173.612 450.12 174.312 450.24 174.858 450.48C175.418 450.72 175.858 451.033 176.178 451.42C176.498 451.807 176.718 452.24 176.838 452.72C176.972 453.2 177.038 453.68 177.038 454.16V460H174.798V458.78ZM174.758 455.62H174.218C173.832 455.62 173.425 455.64 172.998 455.68C172.572 455.707 172.178 455.78 171.818 455.9C171.458 456.007 171.158 456.167 170.918 456.38C170.678 456.58 170.558 456.86 170.558 457.22C170.558 457.447 170.605 457.64 170.698 457.8C170.805 457.947 170.938 458.067 171.098 458.16C171.258 458.253 171.438 458.32 171.638 458.36C171.838 458.4 172.038 458.42 172.238 458.42C173.065 458.42 173.692 458.2 174.118 457.76C174.545 457.32 174.758 456.72 174.758 455.96V455.62ZM179.875 444.88H182.275V460H179.875V444.88ZM191.946 454.24C191.946 453.933 191.899 453.64 191.806 453.36C191.726 453.08 191.593 452.833 191.406 452.62C191.219 452.407 190.979 452.24 190.686 452.12C190.406 451.987 190.073 451.92 189.686 451.92C188.966 451.92 188.353 452.14 187.846 452.58C187.353 453.007 187.079 453.56 187.026 454.24H191.946ZM194.346 455.32C194.346 455.427 194.346 455.533 194.346 455.64C194.346 455.747 194.339 455.853 194.326 455.96H187.026C187.053 456.307 187.139 456.627 187.286 456.92C187.446 457.2 187.653 457.447 187.906 457.66C188.159 457.86 188.446 458.02 188.766 458.14C189.086 458.26 189.419 458.32 189.766 458.32C190.366 458.32 190.873 458.213 191.286 458C191.699 457.773 192.039 457.467 192.306 457.08L193.906 458.36C192.959 459.64 191.586 460.28 189.786 460.28C189.039 460.28 188.353 460.167 187.726 459.94C187.099 459.7 186.553 459.367 186.086 458.94C185.633 458.513 185.273 457.993 185.006 457.38C184.753 456.753 184.626 456.047 184.626 455.26C184.626 454.487 184.753 453.787 185.006 453.16C185.273 452.52 185.633 451.98 186.086 451.54C186.539 451.087 187.073 450.74 187.686 450.5C188.313 450.247 188.986 450.12 189.706 450.12C190.373 450.12 190.986 450.233 191.546 450.46C192.119 450.673 192.613 451 193.026 451.44C193.439 451.867 193.759 452.407 193.986 453.06C194.226 453.7 194.346 454.453 194.346 455.32ZM207.63 458.78H207.57C207.33 459.207 206.944 459.56 206.41 459.84C205.877 460.107 205.27 460.24 204.59 460.24C204.204 460.24 203.797 460.187 203.37 460.08C202.957 459.987 202.57 459.827 202.21 459.6C201.864 459.36 201.57 459.053 201.33 458.68C201.104 458.293 200.99 457.82 200.99 457.26C200.99 456.54 201.19 455.967 201.59 455.54C202.004 455.113 202.53 454.787 203.17 454.56C203.81 454.333 204.517 454.187 205.29 454.12C206.077 454.04 206.844 454 207.59 454V453.76C207.59 453.16 207.37 452.72 206.93 452.44C206.504 452.147 205.99 452 205.39 452C204.884 452 204.397 452.107 203.93 452.32C203.464 452.533 203.077 452.793 202.77 453.1L201.53 451.64C202.077 451.133 202.704 450.753 203.41 450.5C204.13 450.247 204.857 450.12 205.59 450.12C206.444 450.12 207.144 450.24 207.69 450.48C208.25 450.72 208.69 451.033 209.01 451.42C209.33 451.807 209.55 452.24 209.67 452.72C209.804 453.2 209.87 453.68 209.87 454.16V460H207.63V458.78ZM207.59 455.62H207.05C206.664 455.62 206.257 455.64 205.83 455.68C205.404 455.707 205.01 455.78 204.65 455.9C204.29 456.007 203.99 456.167 203.75 456.38C203.51 456.58 203.39 456.86 203.39 457.22C203.39 457.447 203.437 457.64 203.53 457.8C203.637 457.947 203.77 458.067 203.93 458.16C204.09 458.253 204.27 458.32 204.47 458.36C204.67 458.4 204.87 458.42 205.07 458.42C205.897 458.42 206.524 458.2 206.95 457.76C207.377 457.32 207.59 456.72 207.59 455.96V455.62ZM211.227 450.4H213.847L216.367 457.4H216.407L218.947 450.4H221.487L217.667 460H215.107L211.227 450.4ZM229.68 454.24C229.68 453.933 229.634 453.64 229.54 453.36C229.46 453.08 229.327 452.833 229.14 452.62C228.954 452.407 228.714 452.24 228.42 452.12C228.14 451.987 227.807 451.92 227.42 451.92C226.7 451.92 226.087 452.14 225.58 452.58C225.087 453.007 224.814 453.56 224.76 454.24H229.68ZM232.08 455.32C232.08 455.427 232.08 455.533 232.08 455.64C232.08 455.747 232.074 455.853 232.06 455.96H224.76C224.787 456.307 224.874 456.627 225.02 456.92C225.18 457.2 225.387 457.447 225.64 457.66C225.894 457.86 226.18 458.02 226.5 458.14C226.82 458.26 227.154 458.32 227.5 458.32C228.1 458.32 228.607 458.213 229.02 458C229.434 457.773 229.774 457.467 230.04 457.08L231.64 458.36C230.694 459.64 229.32 460.28 227.52 460.28C226.774 460.28 226.087 460.167 225.46 459.94C224.834 459.7 224.287 459.367 223.82 458.94C223.367 458.513 223.007 457.993 222.74 457.38C222.487 456.753 222.36 456.047 222.36 455.26C222.36 454.487 222.487 453.787 222.74 453.16C223.007 452.52 223.367 451.98 223.82 451.54C224.274 451.087 224.807 450.74 225.42 450.5C226.047 450.247 226.72 450.12 227.44 450.12C228.107 450.12 228.72 450.233 229.28 450.46C229.854 450.673 230.347 451 230.76 451.44C231.174 451.867 231.494 452.407 231.72 453.06C231.96 453.7 232.08 454.453 232.08 455.32ZM234.405 450.4H236.705V452H236.745C237.012 451.44 237.385 450.987 237.865 450.64C238.345 450.293 238.905 450.12 239.545 450.12C239.638 450.12 239.738 450.127 239.845 450.14C239.952 450.14 240.045 450.153 240.125 450.18V452.38C239.965 452.34 239.825 452.313 239.705 452.3C239.598 452.287 239.492 452.28 239.385 452.28C238.838 452.28 238.398 452.38 238.065 452.58C237.732 452.78 237.472 453.02 237.285 453.3C237.098 453.58 236.972 453.867 236.905 454.16C236.838 454.453 236.805 454.687 236.805 454.86V460H234.405V450.4ZM247.396 458.78H247.336C247.096 459.207 246.709 459.56 246.176 459.84C245.643 460.107 245.036 460.24 244.356 460.24C243.969 460.24 243.563 460.187 243.136 460.08C242.723 459.987 242.336 459.827 241.976 459.6C241.629 459.36 241.336 459.053 241.096 458.68C240.869 458.293 240.756 457.82 240.756 457.26C240.756 456.54 240.956 455.967 241.356 455.54C241.769 455.113 242.296 454.787 242.936 454.56C243.576 454.333 244.283 454.187 245.056 454.12C245.843 454.04 246.609 454 247.356 454V453.76C247.356 453.16 247.136 452.72 246.696 452.44C246.269 452.147 245.756 452 245.156 452C244.649 452 244.163 452.107 243.696 452.32C243.229 452.533 242.843 452.793 242.536 453.1L241.296 451.64C241.843 451.133 242.469 450.753 243.176 450.5C243.896 450.247 244.623 450.12 245.356 450.12C246.209 450.12 246.909 450.24 247.456 450.48C248.016 450.72 248.456 451.033 248.776 451.42C249.096 451.807 249.316 452.24 249.436 452.72C249.569 453.2 249.636 453.68 249.636 454.16V460H247.396V458.78ZM247.356 455.62H246.816C246.429 455.62 246.023 455.64 245.596 455.68C245.169 455.707 244.776 455.78 244.416 455.9C244.056 456.007 243.756 456.167 243.516 456.38C243.276 456.58 243.156 456.86 243.156 457.22C243.156 457.447 243.203 457.64 243.296 457.8C243.403 457.947 243.536 458.067 243.696 458.16C243.856 458.253 244.036 458.32 244.236 458.36C244.436 458.4 244.636 458.42 244.836 458.42C245.663 458.42 246.289 458.2 246.716 457.76C247.143 457.32 247.356 456.72 247.356 455.96V455.62ZM262.192 450.4V459.14C262.192 460.007 262.086 460.787 261.872 461.48C261.659 462.187 261.326 462.78 260.872 463.26C260.432 463.753 259.872 464.133 259.192 464.4C258.512 464.667 257.706 464.8 256.772 464.8C256.386 464.8 255.972 464.767 255.532 464.7C255.106 464.633 254.679 464.533 254.252 464.4C253.839 464.267 253.439 464.1 253.052 463.9C252.666 463.7 252.319 463.473 252.012 463.22L253.392 461.36C253.859 461.8 254.386 462.133 254.972 462.36C255.559 462.6 256.152 462.72 256.752 462.72C257.326 462.72 257.806 462.633 258.192 462.46C258.592 462.3 258.906 462.073 259.132 461.78C259.372 461.487 259.539 461.14 259.632 460.74C259.739 460.34 259.792 459.9 259.792 459.42V458.72H259.752C259.406 459.187 258.959 459.547 258.412 459.8C257.879 460.04 257.279 460.16 256.612 460.16C255.892 460.16 255.239 460.027 254.652 459.76C254.066 459.493 253.566 459.133 253.152 458.68C252.752 458.227 252.439 457.7 252.212 457.1C251.986 456.487 251.872 455.84 251.872 455.16C251.872 454.467 251.979 453.813 252.192 453.2C252.419 452.587 252.732 452.053 253.132 451.6C253.546 451.147 254.039 450.787 254.612 450.52C255.199 450.253 255.852 450.12 256.572 450.12C257.252 450.12 257.886 450.26 258.472 450.54C259.059 450.82 259.526 451.253 259.872 451.84H259.912V450.4H262.192ZM257.072 452.08C256.632 452.08 256.239 452.16 255.892 452.32C255.559 452.48 255.272 452.7 255.032 452.98C254.806 453.247 254.626 453.567 254.492 453.94C254.372 454.313 254.312 454.713 254.312 455.14C254.312 455.527 254.372 455.9 254.492 456.26C254.626 456.62 254.806 456.947 255.032 457.24C255.272 457.52 255.559 457.747 255.892 457.92C256.239 458.093 256.626 458.18 257.052 458.18C257.492 458.18 257.886 458.1 258.232 457.94C258.592 457.767 258.892 457.54 259.132 457.26C259.386 456.98 259.579 456.66 259.712 456.3C259.846 455.927 259.912 455.54 259.912 455.14C259.912 454.727 259.846 454.333 259.712 453.96C259.579 453.587 259.386 453.26 259.132 452.98C258.892 452.7 258.599 452.48 258.252 452.32C257.906 452.16 257.512 452.08 257.072 452.08ZM271.829 454.24C271.829 453.933 271.782 453.64 271.689 453.36C271.609 453.08 271.476 452.833 271.289 452.62C271.102 452.407 270.862 452.24 270.569 452.12C270.289 451.987 269.956 451.92 269.569 451.92C268.849 451.92 268.236 452.14 267.729 452.58C267.236 453.007 266.962 453.56 266.909 454.24H271.829ZM274.229 455.32C274.229 455.427 274.229 455.533 274.229 455.64C274.229 455.747 274.222 455.853 274.209 455.96H266.909C266.936 456.307 267.022 456.627 267.169 456.92C267.329 457.2 267.536 457.447 267.789 457.66C268.042 457.86 268.329 458.02 268.649 458.14C268.969 458.26 269.302 458.32 269.649 458.32C270.249 458.32 270.756 458.213 271.169 458C271.582 457.773 271.922 457.467 272.189 457.08L273.789 458.36C272.842 459.64 271.469 460.28 269.669 460.28C268.922 460.28 268.236 460.167 267.609 459.94C266.982 459.7 266.436 459.367 265.969 458.94C265.516 458.513 265.156 457.993 264.889 457.38C264.636 456.753 264.509 456.047 264.509 455.26C264.509 454.487 264.636 453.787 264.889 453.16C265.156 452.52 265.516 451.98 265.969 451.54C266.422 451.087 266.956 450.74 267.569 450.5C268.196 450.247 268.869 450.12 269.589 450.12C270.256 450.12 270.869 450.233 271.429 450.46C272.002 450.673 272.496 451 272.909 451.44C273.322 451.867 273.642 452.407 273.869 453.06C274.109 453.7 274.229 454.453 274.229 455.32Z" fill="black"/>
<path d="M390.56 199.84H399.7V202.04H393.08V205.92H399.32V208.04H393.08V214H390.56V199.84ZM407.708 208.24C407.708 207.933 407.661 207.64 407.568 207.36C407.488 207.08 407.354 206.833 407.168 206.62C406.981 206.407 406.741 206.24 406.448 206.12C406.168 205.987 405.834 205.92 405.448 205.92C404.728 205.92 404.114 206.14 403.608 206.58C403.114 207.007 402.841 207.56 402.788 208.24H407.708ZM410.108 209.32C410.108 209.427 410.108 209.533 410.108 209.64C410.108 209.747 410.101 209.853 410.088 209.96H402.788C402.814 210.307 402.901 210.627 403.048 210.92C403.208 211.2 403.414 211.447 403.668 211.66C403.921 211.86 404.208 212.02 404.528 212.14C404.848 212.26 405.181 212.32 405.528 212.32C406.128 212.32 406.634 212.213 407.048 212C407.461 211.773 407.801 211.467 408.068 211.08L409.668 212.36C408.721 213.64 407.348 214.28 405.548 214.28C404.801 214.28 404.114 214.167 403.488 213.94C402.861 213.7 402.314 213.367 401.848 212.94C401.394 212.513 401.034 211.993 400.768 211.38C400.514 210.753 400.388 210.047 400.388 209.26C400.388 208.487 400.514 207.787 400.768 207.16C401.034 206.52 401.394 205.98 401.848 205.54C402.301 205.087 402.834 204.74 403.448 204.5C404.074 204.247 404.748 204.12 405.468 204.12C406.134 204.12 406.748 204.233 407.308 204.46C407.881 204.673 408.374 205 408.788 205.44C409.201 205.867 409.521 206.407 409.748 207.06C409.988 207.7 410.108 208.453 410.108 209.32ZM423.892 204.12C424.519 204.12 425.052 204.233 425.492 204.46C425.946 204.673 426.312 204.96 426.592 205.32C426.886 205.68 427.099 206.093 427.232 206.56C427.366 207.027 427.432 207.507 427.432 208V214H425.032V208.68C425.032 208.4 425.012 208.107 424.972 207.8C424.932 207.493 424.846 207.22 424.712 206.98C424.579 206.727 424.392 206.52 424.152 206.36C423.926 206.2 423.619 206.12 423.232 206.12C422.859 206.12 422.539 206.2 422.272 206.36C422.006 206.52 421.786 206.727 421.612 206.98C421.439 207.233 421.312 207.52 421.232 207.84C421.152 208.147 421.112 208.453 421.112 208.76V214H418.712V208.2C418.712 207.6 418.566 207.107 418.272 206.72C417.992 206.32 417.546 206.12 416.932 206.12C416.572 206.12 416.259 206.2 415.992 206.36C415.726 206.507 415.506 206.7 415.332 206.94C415.172 207.18 415.046 207.46 414.952 207.78C414.872 208.087 414.832 208.4 414.832 208.72V214H412.432V204.4H414.712V205.94H414.752C414.859 205.7 414.999 205.473 415.172 205.26C415.359 205.047 415.572 204.853 415.812 204.68C416.066 204.507 416.352 204.373 416.672 204.28C416.992 204.173 417.346 204.12 417.732 204.12C418.479 204.12 419.099 204.287 419.592 204.62C420.086 204.953 420.466 205.393 420.732 205.94C421.052 205.353 421.479 204.907 422.012 204.6C422.546 204.28 423.172 204.12 423.892 204.12ZM436.185 212.78H436.125C435.885 213.207 435.498 213.56 434.965 213.84C434.432 214.107 433.825 214.24 433.145 214.24C432.758 214.24 432.352 214.187 431.925 214.08C431.512 213.987 431.125 213.827 430.765 213.6C430.418 213.36 430.125 213.053 429.885 212.68C429.658 212.293 429.545 211.82 429.545 211.26C429.545 210.54 429.745 209.967 430.145 209.54C430.558 209.113 431.085 208.787 431.725 208.56C432.365 208.333 433.072 208.187 433.845 208.12C434.632 208.04 435.398 208 436.145 208V207.76C436.145 207.16 435.925 206.72 435.485 206.44C435.058 206.147 434.545 206 433.945 206C433.438 206 432.952 206.107 432.485 206.32C432.018 206.533 431.632 206.793 431.325 207.1L430.085 205.64C430.632 205.133 431.258 204.753 431.965 204.5C432.685 204.247 433.412 204.12 434.145 204.12C434.998 204.12 435.698 204.24 436.245 204.48C436.805 204.72 437.245 205.033 437.565 205.42C437.885 205.807 438.105 206.24 438.225 206.72C438.358 207.2 438.425 207.68 438.425 208.16V214H436.185V212.78ZM436.145 209.62H435.605C435.218 209.62 434.812 209.64 434.385 209.68C433.958 209.707 433.565 209.78 433.205 209.9C432.845 210.007 432.545 210.167 432.305 210.38C432.065 210.58 431.945 210.86 431.945 211.22C431.945 211.447 431.992 211.64 432.085 211.8C432.192 211.947 432.325 212.067 432.485 212.16C432.645 212.253 432.825 212.32 433.025 212.36C433.225 212.4 433.425 212.42 433.625 212.42C434.452 212.42 435.078 212.2 435.505 211.76C435.932 211.32 436.145 210.72 436.145 209.96V209.62ZM441.261 198.88H443.661V214H441.261V198.88ZM453.333 208.24C453.333 207.933 453.286 207.64 453.193 207.36C453.113 207.08 452.979 206.833 452.793 206.62C452.606 206.407 452.366 206.24 452.073 206.12C451.793 205.987 451.459 205.92 451.073 205.92C450.353 205.92 449.739 206.14 449.233 206.58C448.739 207.007 448.466 207.56 448.413 208.24H453.333ZM455.733 209.32C455.733 209.427 455.733 209.533 455.733 209.64C455.733 209.747 455.726 209.853 455.713 209.96H448.413C448.439 210.307 448.526 210.627 448.673 210.92C448.833 211.2 449.039 211.447 449.293 211.66C449.546 211.86 449.833 212.02 450.153 212.14C450.473 212.26 450.806 212.32 451.153 212.32C451.753 212.32 452.259 212.213 452.673 212C453.086 211.773 453.426 211.467 453.693 211.08L455.293 212.36C454.346 213.64 452.973 214.28 451.173 214.28C450.426 214.28 449.739 214.167 449.113 213.94C448.486 213.7 447.939 213.367 447.473 212.94C447.019 212.513 446.659 211.993 446.393 211.38C446.139 210.753 446.013 210.047 446.013 209.26C446.013 208.487 446.139 207.787 446.393 207.16C446.659 206.52 447.019 205.98 447.473 205.54C447.926 205.087 448.459 204.74 449.073 204.5C449.699 204.247 450.373 204.12 451.093 204.12C451.759 204.12 452.373 204.233 452.933 204.46C453.506 204.673 453.999 205 454.413 205.44C454.826 205.867 455.146 206.407 455.373 207.06C455.613 207.7 455.733 208.453 455.733 209.32ZM469.017 212.78H468.957C468.717 213.207 468.331 213.56 467.797 213.84C467.264 214.107 466.657 214.24 465.977 214.24C465.591 214.24 465.184 214.187 464.757 214.08C464.344 213.987 463.957 213.827 463.597 213.6C463.251 213.36 462.957 213.053 462.717 212.68C462.491 212.293 462.377 211.82 462.377 211.26C462.377 210.54 462.577 209.967 462.977 209.54C463.391 209.113 463.917 208.787 464.557 208.56C465.197 208.333 465.904 208.187 466.677 208.12C467.464 208.04 468.231 208 468.977 208V207.76C468.977 207.16 468.757 206.72 468.317 206.44C467.891 206.147 467.377 206 466.777 206C466.271 206 465.784 206.107 465.317 206.32C464.851 206.533 464.464 206.793 464.157 207.1L462.917 205.64C463.464 205.133 464.091 204.753 464.797 204.5C465.517 204.247 466.244 204.12 466.977 204.12C467.831 204.12 468.531 204.24 469.077 204.48C469.637 204.72 470.077 205.033 470.397 205.42C470.717 205.807 470.937 206.24 471.057 206.72C471.191 207.2 471.257 207.68 471.257 208.16V214H469.017V212.78ZM468.977 209.62H468.437C468.051 209.62 467.644 209.64 467.217 209.68C466.791 209.707 466.397 209.78 466.037 209.9C465.677 210.007 465.377 210.167 465.137 210.38C464.897 210.58 464.777 210.86 464.777 211.22C464.777 211.447 464.824 211.64 464.917 211.8C465.024 211.947 465.157 212.067 465.317 212.16C465.477 212.253 465.657 212.32 465.857 212.36C466.057 212.4 466.257 212.42 466.457 212.42C467.284 212.42 467.911 212.2 468.337 211.76C468.764 211.32 468.977 210.72 468.977 209.96V209.62ZM472.613 204.4H475.233L477.753 211.4H477.793L480.333 204.4H482.873L479.053 214H476.493L472.613 204.4ZM491.067 208.24C491.067 207.933 491.021 207.64 490.927 207.36C490.847 207.08 490.714 206.833 490.527 206.62C490.341 206.407 490.101 206.24 489.807 206.12C489.527 205.987 489.194 205.92 488.807 205.92C488.087 205.92 487.474 206.14 486.967 206.58C486.474 207.007 486.201 207.56 486.147 208.24H491.067ZM493.467 209.32C493.467 209.427 493.467 209.533 493.467 209.64C493.467 209.747 493.461 209.853 493.447 209.96H486.147C486.174 210.307 486.261 210.627 486.407 210.92C486.567 211.2 486.774 211.447 487.027 211.66C487.281 211.86 487.567 212.02 487.887 212.14C488.207 212.26 488.541 212.32 488.887 212.32C489.487 212.32 489.994 212.213 490.407 212C490.821 211.773 491.161 211.467 491.427 211.08L493.027 212.36C492.081 213.64 490.707 214.28 488.907 214.28C488.161 214.28 487.474 214.167 486.847 213.94C486.221 213.7 485.674 213.367 485.207 212.94C484.754 212.513 484.394 211.993 484.127 211.38C483.874 210.753 483.747 210.047 483.747 209.26C483.747 208.487 483.874 207.787 484.127 207.16C484.394 206.52 484.754 205.98 485.207 205.54C485.661 205.087 486.194 204.74 486.807 204.5C487.434 204.247 488.107 204.12 488.827 204.12C489.494 204.12 490.107 204.233 490.667 204.46C491.241 204.673 491.734 205 492.147 205.44C492.561 205.867 492.881 206.407 493.107 207.06C493.347 207.7 493.467 208.453 493.467 209.32ZM495.792 204.4H498.092V206H498.132C498.398 205.44 498.772 204.987 499.252 204.64C499.732 204.293 500.292 204.12 500.932 204.12C501.025 204.12 501.125 204.127 501.232 204.14C501.338 204.14 501.432 204.153 501.512 204.18V206.38C501.352 206.34 501.212 206.313 501.092 206.3C500.985 206.287 500.878 206.28 500.772 206.28C500.225 206.28 499.785 206.38 499.452 206.58C499.118 206.78 498.858 207.02 498.672 207.3C498.485 207.58 498.358 207.867 498.292 208.16C498.225 208.453 498.192 208.687 498.192 208.86V214H495.792V204.4ZM508.783 212.78H508.723C508.483 213.207 508.096 213.56 507.563 213.84C507.029 214.107 506.423 214.24 505.743 214.24C505.356 214.24 504.949 214.187 504.523 214.08C504.109 213.987 503.723 213.827 503.363 213.6C503.016 213.36 502.723 213.053 502.483 212.68C502.256 212.293 502.143 211.82 502.143 211.26C502.143 210.54 502.343 209.967 502.743 209.54C503.156 209.113 503.683 208.787 504.323 208.56C504.963 208.333 505.669 208.187 506.443 208.12C507.229 208.04 507.996 208 508.743 208V207.76C508.743 207.16 508.523 206.72 508.083 206.44C507.656 206.147 507.143 206 506.543 206C506.036 206 505.549 206.107 505.083 206.32C504.616 206.533 504.229 206.793 503.923 207.1L502.683 205.64C503.229 205.133 503.856 204.753 504.563 204.5C505.283 204.247 506.009 204.12 506.743 204.12C507.596 204.12 508.296 204.24 508.843 204.48C509.403 204.72 509.843 205.033 510.163 205.42C510.483 205.807 510.703 206.24 510.823 206.72C510.956 207.2 511.023 207.68 511.023 208.16V214H508.783V212.78ZM508.743 209.62H508.203C507.816 209.62 507.409 209.64 506.983 209.68C506.556 209.707 506.163 209.78 505.803 209.9C505.443 210.007 505.143 210.167 504.903 210.38C504.663 210.58 504.543 210.86 504.543 211.22C504.543 211.447 504.589 211.64 504.683 211.8C504.789 211.947 504.923 212.067 505.083 212.16C505.243 212.253 505.423 212.32 505.623 212.36C505.823 212.4 506.023 212.42 506.223 212.42C507.049 212.42 507.676 212.2 508.103 211.76C508.529 211.32 508.743 210.72 508.743 209.96V209.62ZM523.579 204.4V213.14C523.579 214.007 523.472 214.787 523.259 215.48C523.046 216.187 522.712 216.78 522.259 217.26C521.819 217.753 521.259 218.133 520.579 218.4C519.899 218.667 519.092 218.8 518.159 218.8C517.772 218.8 517.359 218.767 516.919 218.7C516.492 218.633 516.066 218.533 515.639 218.4C515.226 218.267 514.826 218.1 514.439 217.9C514.052 217.7 513.706 217.473 513.399 217.22L514.779 215.36C515.246 215.8 515.772 216.133 516.359 216.36C516.946 216.6 517.539 216.72 518.139 216.72C518.712 216.72 519.192 216.633 519.579 216.46C519.979 216.3 520.292 216.073 520.519 215.78C520.759 215.487 520.926 215.14 521.019 214.74C521.126 214.34 521.179 213.9 521.179 213.42V212.72H521.139C520.792 213.187 520.346 213.547 519.799 213.8C519.266 214.04 518.666 214.16 517.999 214.16C517.279 214.16 516.626 214.027 516.039 213.76C515.452 213.493 514.952 213.133 514.539 212.68C514.139 212.227 513.826 211.7 513.599 211.1C513.372 210.487 513.259 209.84 513.259 209.16C513.259 208.467 513.366 207.813 513.579 207.2C513.806 206.587 514.119 206.053 514.519 205.6C514.932 205.147 515.426 204.787 515.999 204.52C516.586 204.253 517.239 204.12 517.959 204.12C518.639 204.12 519.272 204.26 519.859 204.54C520.446 204.82 520.912 205.253 521.259 205.84H521.299V204.4H523.579ZM518.459 206.08C518.019 206.08 517.626 206.16 517.279 206.32C516.946 206.48 516.659 206.7 516.419 206.98C516.192 207.247 516.012 207.567 515.879 207.94C515.759 208.313 515.699 208.713 515.699 209.14C515.699 209.527 515.759 209.9 515.879 210.26C516.012 210.62 516.192 210.947 516.419 211.24C516.659 211.52 516.946 211.747 517.279 211.92C517.626 212.093 518.012 212.18 518.439 212.18C518.879 212.18 519.272 212.1 519.619 211.94C519.979 211.767 520.279 211.54 520.519 211.26C520.772 210.98 520.966 210.66 521.099 210.3C521.232 209.927 521.299 209.54 521.299 209.14C521.299 208.727 521.232 208.333 521.099 207.96C520.966 207.587 520.772 207.26 520.519 206.98C520.279 206.7 519.986 206.48 519.639 206.32C519.292 206.16 518.899 206.08 518.459 206.08ZM533.216 208.24C533.216 207.933 533.169 207.64 533.076 207.36C532.996 207.08 532.862 206.833 532.676 206.62C532.489 206.407 532.249 206.24 531.956 206.12C531.676 205.987 531.342 205.92 530.956 205.92C530.236 205.92 529.622 206.14 529.116 206.58C528.622 207.007 528.349 207.56 528.296 208.24H533.216ZM535.616 209.32C535.616 209.427 535.616 209.533 535.616 209.64C535.616 209.747 535.609 209.853 535.596 209.96H528.296C528.322 210.307 528.409 210.627 528.556 210.92C528.716 211.2 528.922 211.447 529.176 211.66C529.429 211.86 529.716 212.02 530.036 212.14C530.356 212.26 530.689 212.32 531.036 212.32C531.636 212.32 532.142 212.213 532.556 212C532.969 211.773 533.309 211.467 533.576 211.08L535.176 212.36C534.229 213.64 532.856 214.28 531.056 214.28C530.309 214.28 529.622 214.167 528.996 213.94C528.369 213.7 527.822 213.367 527.356 212.94C526.902 212.513 526.542 211.993 526.276 211.38C526.022 210.753 525.896 210.047 525.896 209.26C525.896 208.487 526.022 207.787 526.276 207.16C526.542 206.52 526.902 205.98 527.356 205.54C527.809 205.087 528.342 204.74 528.956 204.5C529.582 204.247 530.256 204.12 530.976 204.12C531.642 204.12 532.256 204.233 532.816 204.46C533.389 204.673 533.882 205 534.296 205.44C534.709 205.867 535.029 206.407 535.256 207.06C535.496 207.7 535.616 208.453 535.616 209.32Z" fill="black"/>
<path d="M289 322.84H291.18L297.28 337H294.4L293.08 333.76H286.94L285.66 337H282.84L289 322.84ZM292.2 331.6L290.02 325.84L287.8 331.6H292.2ZM298.561 327.4H300.841V328.94H300.881C301.094 328.46 301.461 328.04 301.981 327.68C302.514 327.307 303.141 327.12 303.861 327.12C304.488 327.12 305.021 327.233 305.461 327.46C305.914 327.673 306.281 327.96 306.561 328.32C306.854 328.68 307.068 329.093 307.201 329.56C307.334 330.027 307.401 330.507 307.401 331V337H305.001V331.68C305.001 331.4 304.981 331.107 304.941 330.8C304.901 330.493 304.814 330.22 304.681 329.98C304.548 329.727 304.361 329.52 304.121 329.36C303.894 329.2 303.588 329.12 303.201 329.12C302.814 329.12 302.481 329.2 302.201 329.36C301.921 329.507 301.688 329.7 301.501 329.94C301.328 330.18 301.194 330.46 301.101 330.78C301.008 331.087 300.961 331.4 300.961 331.72V337H298.561V327.4ZM319.962 337H317.682V335.56H317.642C317.308 336.12 316.842 336.547 316.242 336.84C315.655 337.133 315.022 337.28 314.342 337.28C313.608 337.28 312.948 337.147 312.362 336.88C311.788 336.6 311.295 336.233 310.882 335.78C310.482 335.313 310.168 334.773 309.942 334.16C309.728 333.533 309.622 332.867 309.622 332.16C309.622 331.453 309.735 330.793 309.962 330.18C310.188 329.567 310.508 329.033 310.922 328.58C311.335 328.127 311.828 327.773 312.402 327.52C312.975 327.253 313.602 327.12 314.282 327.12C314.722 327.12 315.115 327.173 315.462 327.28C315.808 327.373 316.108 327.493 316.362 327.64C316.628 327.787 316.855 327.947 317.042 328.12C317.228 328.293 317.382 328.46 317.502 328.62H317.562V321.88H319.962V337ZM312.062 332.16C312.062 332.533 312.115 332.907 312.222 333.28C312.342 333.653 312.515 333.987 312.742 334.28C312.968 334.573 313.255 334.813 313.602 335C313.948 335.187 314.355 335.28 314.822 335.28C315.262 335.28 315.655 335.193 316.002 335.02C316.348 334.833 316.642 334.593 316.882 334.3C317.135 334.007 317.322 333.68 317.442 333.32C317.575 332.947 317.642 332.573 317.642 332.2C317.642 331.827 317.575 331.453 317.442 331.08C317.322 330.707 317.135 330.373 316.882 330.08C316.642 329.787 316.348 329.547 316.002 329.36C315.655 329.173 315.262 329.08 314.822 329.08C314.355 329.08 313.948 329.173 313.602 329.36C313.255 329.533 312.968 329.767 312.742 330.06C312.515 330.353 312.342 330.687 312.222 331.06C312.115 331.42 312.062 331.787 312.062 332.16ZM322.878 327.4H325.178V329H325.218C325.484 328.44 325.858 327.987 326.338 327.64C326.818 327.293 327.378 327.12 328.018 327.12C328.111 327.12 328.211 327.127 328.318 327.14C328.424 327.14 328.518 327.153 328.598 327.18V329.38C328.438 329.34 328.298 329.313 328.178 329.3C328.071 329.287 327.964 329.28 327.858 329.28C327.311 329.28 326.871 329.38 326.538 329.58C326.204 329.78 325.944 330.02 325.758 330.3C325.571 330.58 325.444 330.867 325.378 331.16C325.311 331.453 325.278 331.687 325.278 331.86V337H322.878V327.4ZM329.251 332.16C329.251 331.4 329.384 330.713 329.651 330.1C329.931 329.473 330.304 328.94 330.771 328.5C331.238 328.06 331.791 327.72 332.431 327.48C333.071 327.24 333.751 327.12 334.471 327.12C335.191 327.12 335.871 327.24 336.511 327.48C337.151 327.72 337.704 328.06 338.171 328.5C338.638 328.94 339.004 329.473 339.271 330.1C339.551 330.713 339.691 331.4 339.691 332.16C339.691 332.92 339.551 333.613 339.271 334.24C339.004 334.867 338.638 335.407 338.171 335.86C337.704 336.3 337.151 336.647 336.511 336.9C335.871 337.153 335.191 337.28 334.471 337.28C333.751 337.28 333.071 337.153 332.431 336.9C331.791 336.647 331.238 336.3 330.771 335.86C330.304 335.407 329.931 334.867 329.651 334.24C329.384 333.613 329.251 332.92 329.251 332.16ZM331.691 332.16C331.691 332.533 331.744 332.907 331.851 333.28C331.971 333.653 332.144 333.987 332.371 334.28C332.598 334.573 332.884 334.813 333.231 335C333.578 335.187 333.991 335.28 334.471 335.28C334.951 335.28 335.364 335.187 335.711 335C336.058 334.813 336.344 334.573 336.571 334.28C336.798 333.987 336.964 333.653 337.071 333.28C337.191 332.907 337.251 332.533 337.251 332.16C337.251 331.787 337.191 331.42 337.071 331.06C336.964 330.687 336.798 330.353 336.571 330.06C336.344 329.767 336.058 329.533 335.711 329.36C335.364 329.173 334.951 329.08 334.471 329.08C333.991 329.08 333.578 329.173 333.231 329.36C332.884 329.533 332.598 329.767 332.371 330.06C332.144 330.353 331.971 330.687 331.851 331.06C331.744 331.42 331.691 331.787 331.691 332.16ZM351.778 327.4V336.14C351.778 337.007 351.671 337.787 351.458 338.48C351.245 339.187 350.911 339.78 350.458 340.26C350.018 340.753 349.458 341.133 348.778 341.4C348.098 341.667 347.291 341.8 346.358 341.8C345.971 341.8 345.558 341.767 345.118 341.7C344.691 341.633 344.265 341.533 343.838 341.4C343.425 341.267 343.025 341.1 342.638 340.9C342.251 340.7 341.905 340.473 341.598 340.22L342.978 338.36C343.445 338.8 343.971 339.133 344.558 339.36C345.145 339.6 345.738 339.72 346.338 339.72C346.911 339.72 347.391 339.633 347.778 339.46C348.178 339.3 348.491 339.073 348.718 338.78C348.958 338.487 349.125 338.14 349.218 337.74C349.325 337.34 349.378 336.9 349.378 336.42V335.72H349.338C348.991 336.187 348.545 336.547 347.998 336.8C347.465 337.04 346.865 337.16 346.198 337.16C345.478 337.16 344.825 337.027 344.238 336.76C343.651 336.493 343.151 336.133 342.738 335.68C342.338 335.227 342.025 334.7 341.798 334.1C341.571 333.487 341.458 332.84 341.458 332.16C341.458 331.467 341.565 330.813 341.778 330.2C342.005 329.587 342.318 329.053 342.718 328.6C343.131 328.147 343.625 327.787 344.198 327.52C344.785 327.253 345.438 327.12 346.158 327.12C346.838 327.12 347.471 327.26 348.058 327.54C348.645 327.82 349.111 328.253 349.458 328.84H349.498V327.4H351.778ZM346.658 329.08C346.218 329.08 345.825 329.16 345.478 329.32C345.145 329.48 344.858 329.7 344.618 329.98C344.391 330.247 344.211 330.567 344.078 330.94C343.958 331.313 343.898 331.713 343.898 332.14C343.898 332.527 343.958 332.9 344.078 333.26C344.211 333.62 344.391 333.947 344.618 334.24C344.858 334.52 345.145 334.747 345.478 334.92C345.825 335.093 346.211 335.18 346.638 335.18C347.078 335.18 347.471 335.1 347.818 334.94C348.178 334.767 348.478 334.54 348.718 334.26C348.971 333.98 349.165 333.66 349.298 333.3C349.431 332.927 349.498 332.54 349.498 332.14C349.498 331.727 349.431 331.333 349.298 330.96C349.165 330.587 348.971 330.26 348.718 329.98C348.478 329.7 348.185 329.48 347.838 329.32C347.491 329.16 347.098 329.08 346.658 329.08ZM353.215 327.4H355.875L358.555 334.38H358.595L360.975 327.4H363.475L358.935 339.06C358.762 339.5 358.575 339.887 358.375 340.22C358.175 340.567 357.935 340.853 357.655 341.08C357.375 341.32 357.042 341.5 356.655 341.62C356.282 341.74 355.828 341.8 355.295 341.8C355.095 341.8 354.888 341.787 354.675 341.76C354.475 341.747 354.268 341.713 354.055 341.66L354.255 339.58C354.415 339.633 354.568 339.667 354.715 339.68C354.875 339.707 355.022 339.72 355.155 339.72C355.408 339.72 355.622 339.687 355.795 339.62C355.968 339.567 356.115 339.473 356.235 339.34C356.355 339.22 356.462 339.067 356.555 338.88C356.648 338.693 356.748 338.473 356.855 338.22L357.335 337L353.215 327.4ZM364.909 327.4H367.189V328.94H367.229C367.442 328.46 367.809 328.04 368.329 327.68C368.862 327.307 369.489 327.12 370.209 327.12C370.835 327.12 371.369 327.233 371.809 327.46C372.262 327.673 372.629 327.96 372.909 328.32C373.202 328.68 373.415 329.093 373.549 329.56C373.682 330.027 373.749 330.507 373.749 331V337H371.349V331.68C371.349 331.4 371.329 331.107 371.289 330.8C371.249 330.493 371.162 330.22 371.029 329.98C370.895 329.727 370.709 329.52 370.469 329.36C370.242 329.2 369.935 329.12 369.549 329.12C369.162 329.12 368.829 329.2 368.549 329.36C368.269 329.507 368.035 329.7 367.849 329.94C367.675 330.18 367.542 330.46 367.449 330.78C367.355 331.087 367.309 331.4 367.309 331.72V337H364.909V327.4ZM375.109 327.4H377.769L380.449 334.38H380.489L382.869 327.4H385.369L380.829 339.06C380.656 339.5 380.469 339.887 380.269 340.22C380.069 340.567 379.829 340.853 379.549 341.08C379.269 341.32 378.936 341.5 378.549 341.62C378.176 341.74 377.723 341.8 377.189 341.8C376.989 341.8 376.783 341.787 376.569 341.76C376.369 341.747 376.163 341.713 375.949 341.66L376.149 339.58C376.309 339.633 376.463 339.667 376.609 339.68C376.769 339.707 376.916 339.72 377.049 339.72C377.303 339.72 377.516 339.687 377.689 339.62C377.863 339.567 378.009 339.473 378.129 339.34C378.249 339.22 378.356 339.067 378.449 338.88C378.543 338.693 378.643 338.473 378.749 338.22L379.229 337L375.109 327.4Z" fill="black"/>
<line x1="335.984" y1="54.9658" x2="335.5" y2="606" stroke="black"/>
<line x1="64" y1="333.5" x2="616" y2="333.5" stroke="black"/>
<defs>
<linearGradient id="paint0_linear_1420_1581" x1="64" y1="464.5" x2="685.5" y2="191" gradientUnits="userSpaceOnUse">
<stop stop-color="#79A0D9"/>
<stop offset="0.336538" stop-color="#759FD9"/>
<stop offset="0.475962" stop-color="#B5A1D4"/>
<stop offset="0.645416" stop-color="#F3ABAF"/>
<stop offset="1" stop-color="#F3ABAF"/>
</linearGradient>
</defs>
</svg>
