<svg width="552" height="552" viewBox="0 0 552 552" fill="none" xmlns="http://www.w3.org/2000/svg">
<rect y="0.034668" width="552" height="551" fill="url(#paint0_linear_1426_1599)"/>
<path d="M251.56 522.875H256.18C256.993 522.875 257.727 522.948 258.38 523.095C259.033 523.241 259.593 523.481 260.06 523.815C260.527 524.148 260.887 524.575 261.14 525.095C261.393 525.615 261.52 526.241 261.52 526.975C261.52 527.761 261.373 528.421 261.08 528.955C260.787 529.488 260.387 529.921 259.88 530.255C259.387 530.575 258.807 530.808 258.14 530.955C257.473 531.101 256.767 531.175 256.02 531.175H254.08V537.035H251.56V522.875ZM255.84 529.055C256.253 529.055 256.647 529.028 257.02 528.975C257.393 528.908 257.727 528.801 258.02 528.655C258.313 528.495 258.547 528.281 258.72 528.015C258.893 527.748 258.98 527.401 258.98 526.975C258.98 526.561 258.893 526.228 258.72 525.975C258.547 525.708 258.313 525.501 258.02 525.355C257.74 525.208 257.413 525.115 257.04 525.075C256.68 525.021 256.307 524.995 255.92 524.995H254.08V529.055H255.84ZM263.199 527.435H265.599V537.035H263.199V527.435ZM262.859 524.175C262.859 523.788 262.999 523.455 263.279 523.175C263.572 522.881 263.939 522.735 264.379 522.735C264.819 522.735 265.185 522.875 265.479 523.155C265.785 523.421 265.939 523.761 265.939 524.175C265.939 524.588 265.785 524.935 265.479 525.215C265.185 525.481 264.819 525.615 264.379 525.615C263.939 525.615 263.572 525.475 263.279 525.195C262.999 524.901 262.859 524.561 262.859 524.175ZM267.13 529.355V527.435H268.81V524.655H271.17V527.435H273.57V529.355H271.17V533.815C271.17 534.241 271.244 534.595 271.39 534.875C271.55 535.155 271.897 535.295 272.43 535.295C272.59 535.295 272.764 535.281 272.95 535.255C273.137 535.215 273.304 535.161 273.45 535.095L273.53 536.975C273.317 537.055 273.064 537.115 272.77 537.155C272.477 537.208 272.197 537.235 271.93 537.235C271.29 537.235 270.77 537.148 270.37 536.975C269.97 536.788 269.65 536.541 269.41 536.235C269.184 535.915 269.024 535.555 268.93 535.155C268.85 534.741 268.81 534.301 268.81 533.835V529.355H267.13ZM281.867 530.095C281.681 529.828 281.401 529.608 281.027 529.435C280.654 529.248 280.274 529.155 279.887 529.155C279.447 529.155 279.061 529.248 278.727 529.435C278.394 529.608 278.114 529.841 277.887 530.135C277.674 530.428 277.514 530.761 277.407 531.135C277.301 531.495 277.247 531.861 277.247 532.235C277.247 532.608 277.301 532.981 277.407 533.355C277.527 533.715 277.701 534.041 277.927 534.335C278.154 534.628 278.434 534.868 278.767 535.055C279.114 535.228 279.514 535.315 279.967 535.315C280.341 535.315 280.714 535.241 281.087 535.095C281.461 534.948 281.761 534.735 281.987 534.455L283.487 535.975C283.087 536.401 282.574 536.735 281.947 536.975C281.334 537.201 280.667 537.315 279.947 537.315C279.241 537.315 278.567 537.201 277.927 536.975C277.301 536.748 276.747 536.415 276.267 535.975C275.801 535.535 275.427 535.001 275.147 534.375C274.881 533.748 274.747 533.035 274.747 532.235C274.747 531.461 274.881 530.761 275.147 530.135C275.427 529.508 275.801 528.975 276.267 528.535C276.734 528.095 277.274 527.755 277.887 527.515C278.514 527.275 279.181 527.155 279.887 527.155C280.594 527.155 281.274 527.288 281.927 527.555C282.594 527.821 283.121 528.188 283.507 528.655L281.867 530.095ZM290.413 527.155C291.039 527.155 291.573 527.268 292.013 527.495C292.466 527.708 292.833 527.995 293.113 528.355C293.406 528.715 293.619 529.128 293.753 529.595C293.886 530.061 293.953 530.541 293.953 531.035V537.035H291.553V531.755C291.553 531.475 291.533 531.188 291.493 530.895C291.453 530.588 291.366 530.315 291.233 530.075C291.113 529.821 290.933 529.615 290.693 529.455C290.466 529.295 290.159 529.215 289.773 529.215C289.386 529.215 289.053 529.288 288.773 529.435C288.493 529.581 288.259 529.781 288.073 530.035C287.886 530.275 287.746 530.548 287.653 530.855C287.559 531.161 287.513 531.475 287.513 531.795V537.035H285.113V521.915H287.513V528.775H287.553C287.646 528.575 287.779 528.381 287.953 528.195C288.139 527.995 288.353 527.821 288.593 527.675C288.833 527.515 289.106 527.388 289.413 527.295C289.719 527.201 290.053 527.155 290.413 527.155ZM305.913 533.135H301.113V531.095H305.913V533.135Z" fill="black"/>
<path d="M245.56 13.8747H250.18C250.993 13.8747 251.727 13.948 252.38 14.0947C253.033 14.2413 253.593 14.4813 254.06 14.8147C254.527 15.148 254.887 15.5747 255.14 16.0947C255.393 16.6147 255.52 17.2413 255.52 17.9747C255.52 18.7613 255.373 19.4213 255.08 19.9547C254.787 20.488 254.387 20.9213 253.88 21.2547C253.387 21.5747 252.807 21.808 252.14 21.9547C251.473 22.1013 250.767 22.1747 250.02 22.1747H248.08V28.0347H245.56V13.8747ZM249.84 20.0547C250.253 20.0547 250.647 20.028 251.02 19.9747C251.393 19.908 251.727 19.8013 252.02 19.6547C252.313 19.4947 252.547 19.2813 252.72 19.0147C252.893 18.748 252.98 18.4013 252.98 17.9747C252.98 17.5613 252.893 17.228 252.72 16.9747C252.547 16.708 252.313 16.5013 252.02 16.3547C251.74 16.208 251.413 16.1147 251.04 16.0747C250.68 16.0213 250.307 15.9947 249.92 15.9947H248.08V20.0547H249.84ZM257.199 18.4347H259.599V28.0347H257.199V18.4347ZM256.859 15.1747C256.859 14.788 256.999 14.4547 257.279 14.1747C257.572 13.8813 257.939 13.7347 258.379 13.7347C258.819 13.7347 259.185 13.8747 259.479 14.1547C259.785 14.4213 259.939 14.7613 259.939 15.1747C259.939 15.588 259.785 15.9347 259.479 16.2147C259.185 16.4813 258.819 16.6147 258.379 16.6147C257.939 16.6147 257.572 16.4747 257.279 16.1947C256.999 15.9013 256.859 15.5613 256.859 15.1747ZM261.13 20.3547V18.4347H262.81V15.6547H265.17V18.4347H267.57V20.3547H265.17V24.8147C265.17 25.2413 265.244 25.5947 265.39 25.8747C265.55 26.1547 265.897 26.2947 266.43 26.2947C266.59 26.2947 266.764 26.2813 266.95 26.2547C267.137 26.2147 267.304 26.1613 267.45 26.0947L267.53 27.9747C267.317 28.0547 267.064 28.1147 266.77 28.1547C266.477 28.208 266.197 28.2347 265.93 28.2347C265.29 28.2347 264.77 28.148 264.37 27.9747C263.97 27.788 263.65 27.5413 263.41 27.2347C263.184 26.9147 263.024 26.5547 262.93 26.1547C262.85 25.7413 262.81 25.3013 262.81 24.8347V20.3547H261.13ZM275.867 21.0947C275.681 20.828 275.401 20.608 275.027 20.4347C274.654 20.248 274.274 20.1547 273.887 20.1547C273.447 20.1547 273.061 20.248 272.727 20.4347C272.394 20.608 272.114 20.8413 271.887 21.1347C271.674 21.428 271.514 21.7613 271.407 22.1347C271.301 22.4947 271.247 22.8613 271.247 23.2347C271.247 23.608 271.301 23.9813 271.407 24.3547C271.527 24.7147 271.701 25.0413 271.927 25.3347C272.154 25.628 272.434 25.868 272.767 26.0547C273.114 26.228 273.514 26.3147 273.967 26.3147C274.341 26.3147 274.714 26.2413 275.087 26.0947C275.461 25.948 275.761 25.7347 275.987 25.4547L277.487 26.9747C277.087 27.4013 276.574 27.7347 275.947 27.9747C275.334 28.2013 274.667 28.3147 273.947 28.3147C273.241 28.3147 272.567 28.2013 271.927 27.9747C271.301 27.748 270.747 27.4147 270.267 26.9747C269.801 26.5347 269.427 26.0013 269.147 25.3747C268.881 24.748 268.747 24.0347 268.747 23.2347C268.747 22.4613 268.881 21.7613 269.147 21.1347C269.427 20.508 269.801 19.9747 270.267 19.5347C270.734 19.0947 271.274 18.7547 271.887 18.5147C272.514 18.2747 273.181 18.1547 273.887 18.1547C274.594 18.1547 275.274 18.288 275.927 18.5547C276.594 18.8213 277.121 19.188 277.507 19.6547L275.867 21.0947ZM284.413 18.1547C285.039 18.1547 285.573 18.268 286.013 18.4947C286.466 18.708 286.833 18.9947 287.113 19.3547C287.406 19.7147 287.619 20.128 287.753 20.5947C287.886 21.0613 287.953 21.5413 287.953 22.0347V28.0347H285.553V22.7547C285.553 22.4747 285.533 22.188 285.493 21.8947C285.453 21.588 285.366 21.3147 285.233 21.0747C285.113 20.8213 284.933 20.6147 284.693 20.4547C284.466 20.2947 284.159 20.2147 283.773 20.2147C283.386 20.2147 283.053 20.288 282.773 20.4347C282.493 20.5813 282.259 20.7813 282.073 21.0347C281.886 21.2747 281.746 21.548 281.653 21.8547C281.559 22.1613 281.513 22.4747 281.513 22.7947V28.0347H279.113V12.9147H281.513V19.7747H281.553C281.646 19.5747 281.779 19.3813 281.953 19.1947C282.139 18.9947 282.353 18.8213 282.593 18.6747C282.833 18.5147 283.106 18.388 283.413 18.2947C283.719 18.2013 284.053 18.1547 284.413 18.1547ZM299.953 20.9547V16.5547H301.993V20.9547H306.393V22.9947H301.993V27.3947H299.953V22.9947H295.553V20.9547H299.953Z" fill="black"/>
<path d="M7.84 355.475V350.455C7.84 349.535 7.96 348.608 8.2 347.675C8.44 346.741 8.84 345.901 9.4 345.155C9.94667 344.408 10.6733 343.801 11.58 343.335C12.4733 342.868 13.5867 342.635 14.92 342.635C16.16 342.635 17.2267 342.868 18.12 343.335C19.0133 343.801 19.7467 344.408 20.32 345.155C20.8933 345.901 21.32 346.741 21.6 347.675C21.8667 348.608 22 349.535 22 350.455V355.475H7.84ZM19.8 350.855C19.8 350.201 19.7267 349.548 19.58 348.895C19.42 348.241 19.16 347.655 18.8 347.135C18.4267 346.601 17.9267 346.168 17.3 345.835C16.6733 345.501 15.88 345.335 14.92 345.335C13.9067 345.335 13.08 345.501 12.44 345.835C11.8 346.168 11.3 346.601 10.94 347.135C10.58 347.655 10.3333 348.241 10.2 348.895C10.0667 349.548 10 350.201 10 350.855V352.955H19.8V350.855ZM20.78 334.361V334.421C21.2067 334.661 21.56 335.048 21.84 335.581C22.1067 336.115 22.24 336.721 22.24 337.401C22.24 337.788 22.1867 338.195 22.08 338.621C21.9867 339.035 21.8267 339.421 21.6 339.781C21.36 340.128 21.0533 340.421 20.68 340.661C20.2933 340.888 19.82 341.001 19.26 341.001C18.54 341.001 17.9667 340.801 17.54 340.401C17.1133 339.988 16.7867 339.461 16.56 338.821C16.3333 338.181 16.1867 337.475 16.12 336.701C16.04 335.915 16 335.148 16 334.401H15.76C15.16 334.401 14.72 334.621 14.44 335.061C14.1467 335.488 14 336.001 14 336.601C14 337.108 14.1067 337.595 14.32 338.061C14.5333 338.528 14.7933 338.915 15.1 339.221L13.64 340.461C13.1333 339.915 12.7533 339.288 12.5 338.581C12.2467 337.861 12.12 337.135 12.12 336.401C12.12 335.548 12.24 334.848 12.48 334.301C12.72 333.741 13.0333 333.301 13.42 332.981C13.8067 332.661 14.24 332.441 14.72 332.321C15.2 332.188 15.68 332.121 16.16 332.121H22V334.361H20.78ZM17.62 334.401V334.941C17.62 335.328 17.64 335.735 17.68 336.161C17.7067 336.588 17.78 336.981 17.9 337.341C18.0067 337.701 18.1667 338.001 18.38 338.241C18.58 338.481 18.86 338.601 19.22 338.601C19.4467 338.601 19.64 338.555 19.8 338.461C19.9467 338.355 20.0667 338.221 20.16 338.061C20.2533 337.901 20.32 337.721 20.36 337.521C20.4 337.321 20.42 337.121 20.42 336.921C20.42 336.095 20.2 335.468 19.76 335.041C19.32 334.615 18.72 334.401 17.96 334.401H17.62ZM12.4 329.325V327.025H14V326.985C13.44 326.718 12.9867 326.345 12.64 325.865C12.2933 325.385 12.12 324.825 12.12 324.185C12.12 324.092 12.1267 323.992 12.14 323.885C12.14 323.778 12.1533 323.685 12.18 323.605H14.38C14.34 323.765 14.3133 323.905 14.3 324.025C14.2867 324.132 14.28 324.238 14.28 324.345C14.28 324.892 14.38 325.332 14.58 325.665C14.78 325.998 15.02 326.258 15.3 326.445C15.58 326.632 15.8667 326.758 16.16 326.825C16.4533 326.892 16.6867 326.925 16.86 326.925H22L22 329.325H12.4ZM6.88 322L6.88 319.6H16.44V319.54L12.4 315.9L12.4 312.82L16.74 316.98L22 312.56V315.74L17.08 319.54V319.6H22V322H6.88ZM7.84 306.061V301.141C7.84 300.474 7.91333 299.827 8.06 299.201C8.19333 298.574 8.42 298.021 8.74 297.541C9.06 297.047 9.48 296.654 10 296.361C10.52 296.067 11.1533 295.921 11.9 295.921C12.9267 295.921 13.7667 296.214 14.42 296.801C15.06 297.374 15.4933 298.161 15.72 299.161L22 295.381V298.421L16 301.701V303.541H22V306.061H7.84ZM13.94 301.481C13.94 301.121 13.9133 300.761 13.86 300.401C13.8067 300.041 13.7067 299.721 13.56 299.441C13.4133 299.147 13.2067 298.907 12.94 298.721C12.66 298.534 12.3067 298.441 11.88 298.441C11.4933 298.441 11.18 298.527 10.94 298.701C10.6867 298.874 10.4867 299.094 10.34 299.361C10.1933 299.627 10.0933 299.934 10.04 300.281C9.98667 300.614 9.96 300.941 9.96 301.261V303.541H13.94V301.481ZM16.24 287.077C15.9333 287.077 15.64 287.124 15.36 287.217C15.08 287.297 14.8333 287.43 14.62 287.617C14.4067 287.804 14.24 288.044 14.12 288.337C13.9867 288.617 13.92 288.95 13.92 289.337C13.92 290.057 14.14 290.67 14.58 291.177C15.0067 291.67 15.56 291.944 16.24 291.997V287.077ZM17.32 284.677C17.4267 284.677 17.5333 284.677 17.64 284.677C17.7467 284.677 17.8533 284.684 17.96 284.697V291.997C18.3067 291.97 18.6267 291.884 18.92 291.737C19.2 291.577 19.4467 291.37 19.66 291.117C19.86 290.864 20.02 290.577 20.14 290.257C20.26 289.937 20.32 289.604 20.32 289.257C20.32 288.657 20.2133 288.15 20 287.737C19.7733 287.324 19.4667 286.984 19.08 286.717L20.36 285.117C21.64 286.064 22.28 287.437 22.28 289.237C22.28 289.984 22.1667 290.67 21.94 291.297C21.7 291.924 21.3667 292.47 20.94 292.937C20.5133 293.39 19.9933 293.75 19.38 294.017C18.7533 294.27 18.0467 294.397 17.26 294.397C16.4867 294.397 15.7867 294.27 15.16 294.017C14.52 293.75 13.98 293.39 13.54 292.937C13.0867 292.484 12.74 291.95 12.5 291.337C12.2467 290.71 12.12 290.037 12.12 289.317C12.12 288.65 12.2333 288.037 12.46 287.477C12.6733 286.904 13 286.41 13.44 285.997C13.8667 285.584 14.4067 285.264 15.06 285.037C15.7 284.797 16.4533 284.677 17.32 284.677ZM14.96 277.092C14.68 277.306 14.44 277.599 14.24 277.972C14.0267 278.346 13.92 278.752 13.92 279.192C13.92 279.579 14 279.932 14.16 280.252C14.32 280.572 14.5867 280.732 14.96 280.732C15.3333 280.732 15.6 280.559 15.76 280.212C15.9067 279.852 16.06 279.332 16.22 278.652C16.3 278.292 16.4067 277.932 16.54 277.572C16.6733 277.199 16.8533 276.866 17.08 276.572C17.2933 276.266 17.5667 276.019 17.9 275.832C18.22 275.646 18.6133 275.552 19.08 275.552C19.6667 275.552 20.1667 275.666 20.58 275.892C20.98 276.106 21.3067 276.399 21.56 276.772C21.8133 277.132 21.9933 277.559 22.1 278.052C22.22 278.532 22.28 279.032 22.28 279.552C22.28 280.299 22.1467 281.026 21.88 281.732C21.6 282.439 21.2067 283.026 20.7 283.492L19.22 281.912C19.5667 281.646 19.8533 281.299 20.08 280.872C20.3067 280.446 20.42 279.972 20.42 279.452C20.42 279.279 20.4 279.106 20.36 278.932C20.32 278.746 20.26 278.579 20.18 278.432C20.0867 278.272 19.9667 278.146 19.82 278.052C19.6733 277.959 19.4933 277.912 19.28 277.912C18.88 277.912 18.5933 278.099 18.42 278.472C18.2467 278.832 18.0733 279.379 17.9 280.112C17.82 280.472 17.72 280.826 17.6 281.172C17.4667 281.506 17.3 281.806 17.1 282.072C16.8867 282.339 16.6267 282.552 16.32 282.712C16.0133 282.872 15.6333 282.952 15.18 282.952C14.6467 282.952 14.1867 282.846 13.8 282.632C13.4133 282.406 13.1 282.112 12.86 281.752C12.6067 281.392 12.42 280.986 12.3 280.532C12.18 280.079 12.12 279.612 12.12 279.132C12.12 278.439 12.24 277.766 12.48 277.112C12.72 276.446 13.0867 275.919 13.58 275.532L14.96 277.092ZM17.16 274.026C16.4 274.026 15.7133 273.892 15.1 273.626C14.4733 273.346 13.94 272.972 13.5 272.506C13.06 272.039 12.72 271.486 12.48 270.846C12.24 270.206 12.12 269.526 12.12 268.806C12.12 268.086 12.24 267.406 12.48 266.766C12.72 266.126 13.06 265.572 13.5 265.106C13.94 264.639 14.4733 264.272 15.1 264.006C15.7133 263.726 16.4 263.586 17.16 263.586C17.92 263.586 18.6133 263.726 19.24 264.006C19.8667 264.272 20.4067 264.639 20.86 265.106C21.3 265.572 21.6467 266.126 21.9 266.766C22.1533 267.406 22.28 268.086 22.28 268.806C22.28 269.526 22.1533 270.206 21.9 270.846C21.6467 271.486 21.3 272.039 20.86 272.506C20.4067 272.972 19.8667 273.346 19.24 273.626C18.6133 273.892 17.92 274.026 17.16 274.026ZM17.16 271.586C17.5333 271.586 17.9067 271.532 18.28 271.426C18.6533 271.306 18.9867 271.132 19.28 270.906C19.5733 270.679 19.8133 270.392 20 270.046C20.1867 269.699 20.28 269.286 20.28 268.806C20.28 268.326 20.1867 267.912 20 267.566C19.8133 267.219 19.5733 266.932 19.28 266.706C18.9867 266.479 18.6533 266.312 18.28 266.206C17.9067 266.086 17.5333 266.026 17.16 266.026C16.7867 266.026 16.42 266.086 16.06 266.206C15.6867 266.312 15.3533 266.479 15.06 266.706C14.7667 266.932 14.5333 267.219 14.36 267.566C14.1733 267.912 14.08 268.326 14.08 268.806C14.08 269.286 14.1733 269.699 14.36 270.046C14.5333 270.392 14.7667 270.679 15.06 270.906C15.3533 271.132 15.6867 271.306 16.06 271.426C16.42 271.532 16.7867 271.586 17.16 271.586ZM12.4 261.259V258.979H13.94V258.939C13.46 258.725 13.04 258.359 12.68 257.839C12.3067 257.305 12.12 256.679 12.12 255.959C12.12 255.332 12.2333 254.799 12.46 254.359C12.6733 253.905 12.96 253.539 13.32 253.259C13.68 252.965 14.0933 252.752 14.56 252.619C15.0267 252.485 15.5067 252.419 16 252.419H22V254.819H16.68C16.4 254.819 16.1067 254.839 15.8 254.879C15.4933 254.919 15.22 255.005 14.98 255.139C14.7267 255.272 14.52 255.459 14.36 255.699C14.2 255.925 14.12 256.232 14.12 256.619C14.12 257.005 14.2 257.339 14.36 257.619C14.5067 257.899 14.7 258.132 14.94 258.319C15.18 258.492 15.46 258.625 15.78 258.719C16.0867 258.812 16.4 258.859 16.72 258.859H22V261.259H12.4ZM20.78 243.658V243.718C21.2067 243.958 21.56 244.345 21.84 244.878C22.1067 245.411 22.24 246.018 22.24 246.698C22.24 247.085 22.1867 247.491 22.08 247.918C21.9867 248.331 21.8267 248.718 21.6 249.078C21.36 249.425 21.0533 249.718 20.68 249.958C20.2933 250.185 19.82 250.298 19.26 250.298C18.54 250.298 17.9667 250.098 17.54 249.698C17.1133 249.285 16.7867 248.758 16.56 248.118C16.3333 247.478 16.1867 246.771 16.12 245.998C16.04 245.211 16 244.445 16 243.698H15.76C15.16 243.698 14.72 243.918 14.44 244.358C14.1467 244.785 14 245.298 14 245.898C14 246.405 14.1067 246.891 14.32 247.358C14.5333 247.825 14.7933 248.211 15.1 248.518L13.64 249.758C13.1333 249.211 12.7533 248.585 12.5 247.878C12.2467 247.158 12.12 246.431 12.12 245.698C12.12 244.845 12.24 244.145 12.48 243.598C12.72 243.038 13.0333 242.598 13.42 242.278C13.8067 241.958 14.24 241.738 14.72 241.618C15.2 241.485 15.68 241.418 16.16 241.418H22V243.658H20.78ZM17.62 243.698V244.238C17.62 244.625 17.64 245.031 17.68 245.458C17.7067 245.885 17.78 246.278 17.9 246.638C18.0067 246.998 18.1667 247.298 18.38 247.538C18.58 247.778 18.86 247.898 19.22 247.898C19.4467 247.898 19.64 247.851 19.8 247.758C19.9467 247.651 20.0667 247.518 20.16 247.358C20.2533 247.198 20.32 247.018 20.36 246.818C20.4 246.618 20.42 246.418 20.42 246.218C20.42 245.391 20.2 244.765 19.76 244.338C19.32 243.911 18.72 243.698 17.96 243.698H17.62ZM12.4 238.622V236.342H13.94V236.302C13.46 236.089 13.04 235.722 12.68 235.202C12.3067 234.669 12.12 234.042 12.12 233.322C12.12 232.695 12.2333 232.162 12.46 231.722C12.6733 231.269 12.96 230.902 13.32 230.622C13.68 230.329 14.0933 230.115 14.56 229.982C15.0267 229.849 15.5067 229.782 16 229.782H22V232.182H16.68C16.4 232.182 16.1067 232.202 15.8 232.242C15.4933 232.282 15.22 232.369 14.98 232.502C14.7267 232.635 14.52 232.822 14.36 233.062C14.2 233.289 14.12 233.595 14.12 233.982C14.12 234.369 14.2 234.702 14.36 234.982C14.5067 235.262 14.7 235.495 14.94 235.682C15.18 235.855 15.46 235.989 15.78 236.082C16.0867 236.175 16.4 236.222 16.72 236.222H22V238.622H12.4ZM15.06 220.421C14.7933 220.608 14.5733 220.888 14.4 221.261C14.2133 221.635 14.12 222.015 14.12 222.401C14.12 222.841 14.2133 223.228 14.4 223.561C14.5733 223.895 14.8067 224.175 15.1 224.401C15.3933 224.615 15.7267 224.775 16.1 224.881C16.46 224.988 16.8267 225.041 17.2 225.041C17.5733 225.041 17.9467 224.988 18.32 224.881C18.68 224.761 19.0067 224.588 19.3 224.361C19.5933 224.135 19.8333 223.855 20.02 223.521C20.1933 223.175 20.28 222.775 20.28 222.321C20.28 221.948 20.2067 221.575 20.06 221.201C19.9133 220.828 19.7 220.528 19.42 220.301L20.94 218.801C21.3667 219.201 21.7 219.715 21.94 220.341C22.1667 220.955 22.28 221.621 22.28 222.341C22.28 223.048 22.1667 223.721 21.94 224.361C21.7133 224.988 21.38 225.541 20.94 226.021C20.5 226.488 19.9667 226.861 19.34 227.141C18.7133 227.408 18 227.541 17.2 227.541C16.4267 227.541 15.7267 227.408 15.1 227.141C14.4733 226.861 13.94 226.488 13.5 226.021C13.06 225.555 12.72 225.015 12.48 224.401C12.24 223.775 12.12 223.108 12.12 222.401C12.12 221.695 12.2533 221.015 12.52 220.361C12.7867 219.695 13.1533 219.168 13.62 218.781L15.06 220.421ZM16.24 210.456C15.9333 210.456 15.64 210.502 15.36 210.596C15.08 210.676 14.8333 210.809 14.62 210.996C14.4067 211.182 14.24 211.422 14.12 211.716C13.9867 211.996 13.92 212.329 13.92 212.716C13.92 213.436 14.14 214.049 14.58 214.556C15.0067 215.049 15.56 215.322 16.24 215.376V210.456ZM17.32 208.056C17.4267 208.056 17.5333 208.056 17.64 208.056C17.7467 208.056 17.8533 208.062 17.96 208.076V215.376C18.3067 215.349 18.6267 215.262 18.92 215.116C19.2 214.956 19.4467 214.749 19.66 214.496C19.86 214.242 20.02 213.956 20.14 213.636C20.26 213.316 20.32 212.982 20.32 212.636C20.32 212.036 20.2133 211.529 20 211.116C19.7733 210.702 19.4667 210.362 19.08 210.096L20.36 208.496C21.64 209.442 22.28 210.816 22.28 212.616C22.28 213.362 22.1667 214.049 21.94 214.676C21.7 215.302 21.3667 215.849 20.94 216.316C20.5133 216.769 19.9933 217.129 19.38 217.396C18.7533 217.649 18.0467 217.776 17.26 217.776C16.4867 217.776 15.7867 217.649 15.16 217.396C14.52 217.129 13.98 216.769 13.54 216.316C13.0867 215.862 12.74 215.329 12.5 214.716C12.2467 214.089 12.12 213.416 12.12 212.696C12.12 212.029 12.2333 211.416 12.46 210.856C12.6733 210.282 13 209.789 13.44 209.376C13.8667 208.962 14.4067 208.642 15.06 208.416C15.7 208.176 16.4533 208.056 17.32 208.056Z" fill="black"/>
<path d="M540.16 201.595V207.115C540.16 207.648 540.093 208.175 539.96 208.695C539.84 209.215 539.633 209.675 539.34 210.075C539.06 210.488 538.693 210.821 538.24 211.075C537.787 211.328 537.24 211.455 536.6 211.455C535.8 211.455 535.14 211.228 534.62 210.775C534.1 210.321 533.727 209.728 533.5 208.995H533.46C533.34 209.888 532.993 210.621 532.42 211.195C531.847 211.768 531.08 212.055 530.12 212.055C529.347 212.055 528.693 211.901 528.16 211.595C527.64 211.288 527.22 210.881 526.9 210.375C526.58 209.881 526.347 209.308 526.2 208.655C526.067 208.015 526 207.361 526 206.695V201.595H540.16ZM534.4 204.115V206.355C534.4 207.195 534.567 207.835 534.9 208.275C535.233 208.715 535.707 208.935 536.32 208.935C536.96 208.935 537.413 208.708 537.68 208.255C537.947 207.801 538.08 207.095 538.08 206.135V204.115H534.4ZM528.12 204.115V206.375C528.12 206.695 528.14 207.041 528.18 207.415C528.233 207.788 528.333 208.128 528.48 208.435C528.627 208.755 528.84 209.015 529.12 209.215C529.4 209.428 529.773 209.535 530.24 209.535C530.987 209.535 531.507 209.281 531.8 208.775C532.093 208.268 532.24 207.501 532.24 206.475V204.115H528.12ZM535.6 214.424V216.724H534V216.764C534.56 217.031 535.013 217.404 535.36 217.884C535.707 218.364 535.88 218.924 535.88 219.564C535.88 219.657 535.873 219.757 535.86 219.864C535.86 219.971 535.847 220.064 535.82 220.144H533.62C533.66 219.984 533.687 219.844 533.7 219.724C533.713 219.617 533.72 219.511 533.72 219.404C533.72 218.857 533.62 218.417 533.42 218.084C533.22 217.751 532.98 217.491 532.7 217.304C532.42 217.117 532.133 216.991 531.84 216.924C531.547 216.857 531.313 216.824 531.14 216.824H526V214.424H535.6ZM535.6 221.749V224.149H526V221.749H535.6ZM538.86 221.409C539.247 221.409 539.58 221.549 539.86 221.829C540.153 222.122 540.3 222.489 540.3 222.929C540.3 223.369 540.16 223.736 539.88 224.029C539.613 224.336 539.273 224.489 538.86 224.489C538.447 224.489 538.1 224.336 537.82 224.029C537.553 223.736 537.42 223.369 537.42 222.929C537.42 222.489 537.56 222.122 537.84 221.829C538.133 221.549 538.473 221.409 538.86 221.409ZM535.6 236.821H526.86C525.993 236.821 525.213 236.714 524.52 236.501C523.813 236.287 523.22 235.954 522.74 235.501C522.247 235.061 521.867 234.501 521.6 233.821C521.333 233.141 521.2 232.334 521.2 231.401C521.2 231.014 521.233 230.601 521.3 230.161C521.367 229.734 521.467 229.307 521.6 228.881C521.733 228.467 521.9 228.067 522.1 227.681C522.3 227.294 522.527 226.947 522.78 226.641L524.64 228.021C524.2 228.487 523.867 229.014 523.64 229.601C523.4 230.187 523.28 230.781 523.28 231.381C523.28 231.954 523.367 232.434 523.54 232.821C523.7 233.221 523.927 233.534 524.22 233.761C524.513 234.001 524.86 234.167 525.26 234.261C525.66 234.367 526.1 234.421 526.58 234.421H527.28V234.381C526.813 234.034 526.453 233.587 526.2 233.041C525.96 232.507 525.84 231.907 525.84 231.241C525.84 230.521 525.973 229.867 526.24 229.281C526.507 228.694 526.867 228.194 527.32 227.781C527.773 227.381 528.3 227.067 528.9 226.841C529.513 226.614 530.16 226.501 530.84 226.501C531.533 226.501 532.187 226.607 532.8 226.821C533.413 227.047 533.947 227.361 534.4 227.761C534.853 228.174 535.213 228.667 535.48 229.241C535.747 229.827 535.88 230.481 535.88 231.201C535.88 231.881 535.74 232.514 535.46 233.101C535.18 233.687 534.747 234.154 534.16 234.501V234.541H535.6V236.821ZM533.92 231.701C533.92 231.261 533.84 230.867 533.68 230.521C533.52 230.187 533.3 229.901 533.02 229.661C532.753 229.434 532.433 229.254 532.06 229.121C531.687 229.001 531.287 228.941 530.86 228.941C530.473 228.941 530.1 229.001 529.74 229.121C529.38 229.254 529.053 229.434 528.76 229.661C528.48 229.901 528.253 230.187 528.08 230.521C527.907 230.867 527.82 231.254 527.82 231.681C527.82 232.121 527.9 232.514 528.06 232.861C528.233 233.221 528.46 233.521 528.74 233.761C529.02 234.014 529.34 234.207 529.7 234.341C530.073 234.474 530.46 234.541 530.86 234.541C531.273 234.541 531.667 234.474 532.04 234.341C532.413 234.207 532.74 234.014 533.02 233.761C533.3 233.521 533.52 233.227 533.68 232.881C533.84 232.534 533.92 232.141 533.92 231.701ZM535.88 245.037C535.88 245.664 535.767 246.197 535.54 246.637C535.327 247.091 535.04 247.457 534.68 247.737C534.32 248.031 533.907 248.244 533.44 248.377C532.973 248.511 532.493 248.577 532 248.577H526V246.177H531.28C531.56 246.177 531.847 246.157 532.14 246.117C532.447 246.077 532.72 245.991 532.96 245.857C533.213 245.737 533.42 245.557 533.58 245.317C533.74 245.091 533.82 244.784 533.82 244.397C533.82 244.011 533.747 243.677 533.6 243.397C533.453 243.117 533.253 242.884 533 242.697C532.76 242.511 532.487 242.371 532.18 242.277C531.873 242.184 531.56 242.137 531.24 242.137H526V239.737H541.12V242.137H534.26V242.177C534.46 242.271 534.653 242.404 534.84 242.577C535.04 242.764 535.213 242.977 535.36 243.217C535.52 243.457 535.647 243.731 535.74 244.037C535.833 244.344 535.88 244.677 535.88 245.037ZM533.68 249.997H535.6V251.677H538.38V254.037H535.6V256.437H533.68V254.037H529.22C528.793 254.037 528.44 254.11 528.16 254.257C527.88 254.417 527.74 254.764 527.74 255.297C527.74 255.457 527.753 255.63 527.78 255.817C527.82 256.004 527.873 256.17 527.94 256.317L526.06 256.397C525.98 256.184 525.92 255.93 525.88 255.637C525.827 255.344 525.8 255.064 525.8 254.797C525.8 254.157 525.887 253.637 526.06 253.237C526.247 252.837 526.493 252.517 526.8 252.277C527.12 252.05 527.48 251.89 527.88 251.797C528.293 251.717 528.733 251.677 529.2 251.677H533.68V249.997ZM540.16 263.294V268.214C540.16 268.881 540.087 269.527 539.94 270.154C539.807 270.781 539.58 271.334 539.26 271.814C538.94 272.307 538.52 272.701 538 272.994C537.48 273.287 536.847 273.434 536.1 273.434C535.073 273.434 534.233 273.141 533.58 272.554C532.94 271.981 532.507 271.194 532.28 270.194L526 273.974V270.934L532 267.654V265.814H526V263.294H540.16ZM534.06 267.874C534.06 268.234 534.087 268.594 534.14 268.954C534.193 269.314 534.293 269.634 534.44 269.914C534.587 270.207 534.793 270.447 535.06 270.634C535.34 270.821 535.693 270.914 536.12 270.914C536.507 270.914 536.82 270.827 537.06 270.654C537.313 270.481 537.513 270.261 537.66 269.994C537.807 269.727 537.907 269.421 537.96 269.074C538.013 268.741 538.04 268.414 538.04 268.094V265.814H534.06V267.874ZM531.76 282.278C532.067 282.278 532.36 282.231 532.64 282.138C532.92 282.058 533.167 281.924 533.38 281.738C533.593 281.551 533.76 281.311 533.88 281.018C534.013 280.738 534.08 280.404 534.08 280.018C534.08 279.298 533.86 278.684 533.42 278.178C532.993 277.684 532.44 277.411 531.76 277.358V282.278ZM530.68 284.678C530.573 284.678 530.467 284.678 530.36 284.678C530.253 284.678 530.147 284.671 530.04 284.658V277.358C529.693 277.384 529.373 277.471 529.08 277.618C528.8 277.778 528.553 277.984 528.34 278.238C528.14 278.491 527.98 278.778 527.86 279.098C527.74 279.418 527.68 279.751 527.68 280.098C527.68 280.698 527.787 281.204 528 281.618C528.227 282.031 528.533 282.371 528.92 282.638L527.64 284.238C526.36 283.291 525.72 281.918 525.72 280.118C525.72 279.371 525.833 278.684 526.06 278.058C526.3 277.431 526.633 276.884 527.06 276.418C527.487 275.964 528.007 275.604 528.62 275.338C529.247 275.084 529.953 274.958 530.74 274.958C531.513 274.958 532.213 275.084 532.84 275.338C533.48 275.604 534.02 275.964 534.46 276.418C534.913 276.871 535.26 277.404 535.5 278.018C535.753 278.644 535.88 279.318 535.88 280.038C535.88 280.704 535.767 281.318 535.54 281.878C535.327 282.451 535 282.944 534.56 283.358C534.133 283.771 533.593 284.091 532.94 284.318C532.3 284.558 531.547 284.678 530.68 284.678ZM533.04 292.262C533.32 292.049 533.56 291.755 533.76 291.382C533.973 291.009 534.08 290.602 534.08 290.162C534.08 289.775 534 289.422 533.84 289.102C533.68 288.782 533.413 288.622 533.04 288.622C532.667 288.622 532.4 288.795 532.24 289.142C532.093 289.502 531.94 290.022 531.78 290.702C531.7 291.062 531.593 291.422 531.46 291.782C531.327 292.155 531.147 292.489 530.92 292.782C530.707 293.089 530.433 293.335 530.1 293.522C529.78 293.709 529.387 293.802 528.92 293.802C528.333 293.802 527.833 293.689 527.42 293.462C527.02 293.249 526.693 292.955 526.44 292.582C526.187 292.222 526.007 291.795 525.9 291.302C525.78 290.822 525.72 290.322 525.72 289.802C525.72 289.055 525.853 288.329 526.12 287.622C526.4 286.915 526.793 286.329 527.3 285.862L528.78 287.442C528.433 287.709 528.147 288.055 527.92 288.482C527.693 288.909 527.58 289.382 527.58 289.902C527.58 290.075 527.6 290.249 527.64 290.422C527.68 290.609 527.74 290.775 527.82 290.922C527.913 291.082 528.033 291.209 528.18 291.302C528.327 291.395 528.507 291.442 528.72 291.442C529.12 291.442 529.407 291.255 529.58 290.882C529.753 290.522 529.927 289.975 530.1 289.242C530.18 288.882 530.28 288.529 530.4 288.182C530.533 287.849 530.7 287.549 530.9 287.282C531.113 287.015 531.373 286.802 531.68 286.642C531.987 286.482 532.367 286.402 532.82 286.402C533.353 286.402 533.813 286.509 534.2 286.722C534.587 286.949 534.9 287.242 535.14 287.602C535.393 287.962 535.58 288.369 535.7 288.822C535.82 289.275 535.88 289.742 535.88 290.222C535.88 290.915 535.76 291.589 535.52 292.242C535.28 292.909 534.913 293.435 534.42 293.822L533.04 292.262ZM530.84 295.329C531.6 295.329 532.287 295.462 532.9 295.729C533.527 296.009 534.06 296.382 534.5 296.849C534.94 297.315 535.28 297.869 535.52 298.509C535.76 299.149 535.88 299.829 535.88 300.549C535.88 301.269 535.76 301.949 535.52 302.589C535.28 303.229 534.94 303.782 534.5 304.249C534.06 304.715 533.527 305.082 532.9 305.349C532.287 305.629 531.6 305.769 530.84 305.769C530.08 305.769 529.387 305.629 528.76 305.349C528.133 305.082 527.593 304.715 527.14 304.249C526.7 303.782 526.353 303.229 526.1 302.589C525.847 301.949 525.72 301.269 525.72 300.549C525.72 299.829 525.847 299.149 526.1 298.509C526.353 297.869 526.7 297.315 527.14 296.849C527.593 296.382 528.133 296.009 528.76 295.729C529.387 295.462 530.08 295.329 530.84 295.329ZM530.84 297.769C530.467 297.769 530.093 297.822 529.72 297.929C529.347 298.049 529.013 298.222 528.72 298.449C528.427 298.675 528.187 298.962 528 299.309C527.813 299.655 527.72 300.069 527.72 300.549C527.72 301.029 527.813 301.442 528 301.789C528.187 302.135 528.427 302.422 528.72 302.649C529.013 302.875 529.347 303.042 529.72 303.149C530.093 303.269 530.467 303.329 530.84 303.329C531.213 303.329 531.58 303.269 531.94 303.149C532.313 303.042 532.647 302.875 532.94 302.649C533.233 302.422 533.467 302.135 533.64 301.789C533.827 301.442 533.92 301.029 533.92 300.549C533.92 300.069 533.827 299.655 533.64 299.309C533.467 298.962 533.233 298.675 532.94 298.449C532.647 298.222 532.313 298.049 531.94 297.929C531.58 297.822 531.213 297.769 530.84 297.769ZM535.6 308.096V310.376H534.06V310.416C534.54 310.629 534.96 310.996 535.32 311.516C535.693 312.049 535.88 312.676 535.88 313.396C535.88 314.022 535.767 314.556 535.54 314.996C535.327 315.449 535.04 315.816 534.68 316.096C534.32 316.389 533.907 316.602 533.44 316.736C532.973 316.869 532.493 316.936 532 316.936H526V314.536H531.32C531.6 314.536 531.893 314.516 532.2 314.476C532.507 314.436 532.78 314.349 533.02 314.216C533.273 314.082 533.48 313.896 533.64 313.656C533.8 313.429 533.88 313.122 533.88 312.736C533.88 312.349 533.8 312.016 533.64 311.736C533.493 311.456 533.3 311.222 533.06 311.036C532.82 310.862 532.54 310.729 532.22 310.636C531.913 310.542 531.6 310.496 531.28 310.496H526V308.096H535.6ZM527.22 325.696V325.636C526.793 325.396 526.44 325.01 526.16 324.476C525.893 323.943 525.76 323.336 525.76 322.656C525.76 322.27 525.813 321.863 525.92 321.436C526.013 321.023 526.173 320.636 526.4 320.276C526.64 319.93 526.947 319.636 527.32 319.396C527.707 319.17 528.18 319.056 528.74 319.056C529.46 319.056 530.033 319.256 530.46 319.656C530.887 320.07 531.213 320.596 531.44 321.236C531.667 321.876 531.813 322.583 531.88 323.356C531.96 324.143 532 324.91 532 325.656H532.24C532.84 325.656 533.28 325.436 533.56 324.996C533.853 324.57 534 324.056 534 323.456C534 322.95 533.893 322.463 533.68 321.996C533.467 321.53 533.207 321.143 532.9 320.836L534.36 319.596C534.867 320.143 535.247 320.77 535.5 321.476C535.753 322.196 535.88 322.923 535.88 323.656C535.88 324.51 535.76 325.21 535.52 325.756C535.28 326.316 534.967 326.756 534.58 327.076C534.193 327.396 533.76 327.616 533.28 327.736C532.8 327.87 532.32 327.936 531.84 327.936H526V325.696H527.22ZM530.38 325.656V325.116C530.38 324.73 530.36 324.323 530.32 323.896C530.293 323.47 530.22 323.076 530.1 322.716C529.993 322.356 529.833 322.056 529.62 321.816C529.42 321.576 529.14 321.456 528.78 321.456C528.553 321.456 528.36 321.503 528.2 321.596C528.053 321.703 527.933 321.836 527.84 321.996C527.747 322.156 527.68 322.336 527.64 322.536C527.6 322.736 527.58 322.936 527.58 323.136C527.58 323.963 527.8 324.59 528.24 325.016C528.68 325.443 529.28 325.656 530.04 325.656H530.38ZM535.6 330.732V333.012H534.06V333.052C534.54 333.266 534.96 333.632 535.32 334.152C535.693 334.686 535.88 335.312 535.88 336.032C535.88 336.659 535.767 337.192 535.54 337.632C535.327 338.086 535.04 338.452 534.68 338.732C534.32 339.026 533.907 339.239 533.44 339.372C532.973 339.506 532.493 339.572 532 339.572H526V337.172H531.32C531.6 337.172 531.893 337.152 532.2 337.112C532.507 337.072 532.78 336.986 533.02 336.852C533.273 336.719 533.48 336.532 533.64 336.292C533.8 336.066 533.88 335.759 533.88 335.372C533.88 334.986 533.8 334.652 533.64 334.372C533.493 334.092 533.3 333.859 533.06 333.672C532.82 333.499 532.54 333.366 532.22 333.272C531.913 333.179 531.6 333.132 531.28 333.132H526V330.732H535.6ZM532.94 348.933C533.207 348.746 533.427 348.466 533.6 348.093C533.787 347.72 533.88 347.34 533.88 346.953C533.88 346.513 533.787 346.126 533.6 345.793C533.427 345.46 533.193 345.18 532.9 344.953C532.607 344.74 532.273 344.58 531.9 344.473C531.54 344.366 531.173 344.313 530.8 344.313C530.427 344.313 530.053 344.366 529.68 344.473C529.32 344.593 528.993 344.766 528.7 344.993C528.407 345.22 528.167 345.5 527.98 345.833C527.807 346.18 527.72 346.58 527.72 347.033C527.72 347.406 527.793 347.78 527.94 348.153C528.087 348.526 528.3 348.826 528.58 349.053L527.06 350.553C526.633 350.153 526.3 349.64 526.06 349.013C525.833 348.4 525.72 347.733 525.72 347.013C525.72 346.306 525.833 345.633 526.06 344.993C526.287 344.366 526.62 343.813 527.06 343.333C527.5 342.866 528.033 342.493 528.66 342.213C529.287 341.946 530 341.813 530.8 341.813C531.573 341.813 532.273 341.946 532.9 342.213C533.527 342.493 534.06 342.866 534.5 343.333C534.94 343.8 535.28 344.34 535.52 344.953C535.76 345.58 535.88 346.246 535.88 346.953C535.88 347.66 535.747 348.34 535.48 348.993C535.213 349.66 534.847 350.186 534.38 350.573L532.94 348.933ZM531.76 358.899C532.067 358.899 532.36 358.852 532.64 358.759C532.92 358.679 533.167 358.545 533.38 358.359C533.593 358.172 533.76 357.932 533.88 357.639C534.013 357.359 534.08 357.025 534.08 356.639C534.08 355.919 533.86 355.305 533.42 354.799C532.993 354.305 532.44 354.032 531.76 353.979V358.899ZM530.68 361.299C530.573 361.299 530.467 361.299 530.36 361.299C530.253 361.299 530.147 361.292 530.04 361.279V353.979C529.693 354.005 529.373 354.092 529.08 354.239C528.8 354.399 528.553 354.605 528.34 354.859C528.14 355.112 527.98 355.399 527.86 355.719C527.74 356.039 527.68 356.372 527.68 356.719C527.68 357.319 527.787 357.825 528 358.239C528.227 358.652 528.533 358.992 528.92 359.259L527.64 360.859C526.36 359.912 525.72 358.539 525.72 356.739C525.72 355.992 525.833 355.305 526.06 354.679C526.3 354.052 526.633 353.505 527.06 353.039C527.487 352.585 528.007 352.225 528.62 351.959C529.247 351.705 529.953 351.579 530.74 351.579C531.513 351.579 532.213 351.705 532.84 351.959C533.48 352.225 534.02 352.585 534.46 353.039C534.913 353.492 535.26 354.025 535.5 354.639C535.753 355.265 535.88 355.939 535.88 356.659C535.88 357.325 535.767 357.939 535.54 358.499C535.327 359.072 535 359.565 534.56 359.979C534.133 360.392 533.593 360.712 532.94 360.939C532.3 361.179 531.547 361.299 530.68 361.299Z" fill="black"/>
<ellipse cx="399" cy="153.035" rx="102" ry="100" stroke="black" stroke-width="3" stroke-dasharray="6 6"/>
<ellipse cx="149" cy="399.035" rx="102" ry="100" stroke="black" stroke-width="3" stroke-dasharray="6 6"/>
<line x1="82.9524" y1="318.961" x2="331.952" y2="75.9612" stroke="black" stroke-width="3" stroke-dasharray="4 4"/>
<line x1="212.952" y1="472.961" x2="461.952" y2="229.961" stroke="black" stroke-width="3" stroke-dasharray="4 4"/>
<path d="M86.56 390.875H90.5L94.18 400.935H94.24L97.88 390.875H101.84V405.035H99.34V393.655H99.3L95 405.035H93.24L89 393.655H88.96V405.035H86.56V390.875ZM110.798 403.815H110.738C110.498 404.241 110.112 404.595 109.578 404.875C109.045 405.141 108.438 405.275 107.758 405.275C107.372 405.275 106.965 405.221 106.538 405.115C106.125 405.021 105.738 404.861 105.378 404.635C105.032 404.395 104.738 404.088 104.498 403.715C104.272 403.328 104.158 402.855 104.158 402.295C104.158 401.575 104.358 401.001 104.758 400.575C105.172 400.148 105.698 399.821 106.338 399.595C106.978 399.368 107.685 399.221 108.458 399.155C109.245 399.075 110.012 399.035 110.758 399.035V398.795C110.758 398.195 110.538 397.755 110.098 397.475C109.672 397.181 109.158 397.035 108.558 397.035C108.052 397.035 107.565 397.141 107.098 397.355C106.632 397.568 106.245 397.828 105.938 398.135L104.698 396.675C105.245 396.168 105.872 395.788 106.578 395.535C107.298 395.281 108.025 395.155 108.758 395.155C109.612 395.155 110.312 395.275 110.858 395.515C111.418 395.755 111.858 396.068 112.178 396.455C112.498 396.841 112.718 397.275 112.838 397.755C112.972 398.235 113.038 398.715 113.038 399.195V405.035H110.798V403.815ZM110.758 400.655H110.218C109.832 400.655 109.425 400.675 108.998 400.715C108.572 400.741 108.178 400.815 107.818 400.935C107.458 401.041 107.158 401.201 106.918 401.415C106.678 401.615 106.558 401.895 106.558 402.255C106.558 402.481 106.605 402.675 106.698 402.835C106.805 402.981 106.938 403.101 107.098 403.195C107.258 403.288 107.438 403.355 107.638 403.395C107.838 403.435 108.038 403.455 108.238 403.455C109.065 403.455 109.692 403.235 110.118 402.795C110.545 402.355 110.758 401.755 110.758 400.995V400.655ZM115.875 389.915H118.275V405.035H115.875V389.915ZM127.946 399.275C127.946 398.968 127.899 398.675 127.806 398.395C127.726 398.115 127.593 397.868 127.406 397.655C127.219 397.441 126.979 397.275 126.686 397.155C126.406 397.021 126.073 396.955 125.686 396.955C124.966 396.955 124.353 397.175 123.846 397.615C123.353 398.041 123.079 398.595 123.026 399.275H127.946ZM130.346 400.355C130.346 400.461 130.346 400.568 130.346 400.675C130.346 400.781 130.339 400.888 130.326 400.995H123.026C123.053 401.341 123.139 401.661 123.286 401.955C123.446 402.235 123.653 402.481 123.906 402.695C124.159 402.895 124.446 403.055 124.766 403.175C125.086 403.295 125.419 403.355 125.766 403.355C126.366 403.355 126.873 403.248 127.286 403.035C127.699 402.808 128.039 402.501 128.306 402.115L129.906 403.395C128.959 404.675 127.586 405.315 125.786 405.315C125.039 405.315 124.353 405.201 123.726 404.975C123.099 404.735 122.553 404.401 122.086 403.975C121.633 403.548 121.273 403.028 121.006 402.415C120.753 401.788 120.626 401.081 120.626 400.295C120.626 399.521 120.753 398.821 121.006 398.195C121.273 397.555 121.633 397.015 122.086 396.575C122.539 396.121 123.073 395.775 123.686 395.535C124.313 395.281 124.986 395.155 125.706 395.155C126.373 395.155 126.986 395.268 127.546 395.495C128.119 395.708 128.613 396.035 129.026 396.475C129.439 396.901 129.759 397.441 129.986 398.095C130.226 398.735 130.346 399.488 130.346 400.355ZM143.63 403.815H143.57C143.33 404.241 142.944 404.595 142.41 404.875C141.877 405.141 141.27 405.275 140.59 405.275C140.204 405.275 139.797 405.221 139.37 405.115C138.957 405.021 138.57 404.861 138.21 404.635C137.864 404.395 137.57 404.088 137.33 403.715C137.104 403.328 136.99 402.855 136.99 402.295C136.99 401.575 137.19 401.001 137.59 400.575C138.004 400.148 138.53 399.821 139.17 399.595C139.81 399.368 140.517 399.221 141.29 399.155C142.077 399.075 142.844 399.035 143.59 399.035V398.795C143.59 398.195 143.37 397.755 142.93 397.475C142.504 397.181 141.99 397.035 141.39 397.035C140.884 397.035 140.397 397.141 139.93 397.355C139.464 397.568 139.077 397.828 138.77 398.135L137.53 396.675C138.077 396.168 138.704 395.788 139.41 395.535C140.13 395.281 140.857 395.155 141.59 395.155C142.444 395.155 143.144 395.275 143.69 395.515C144.25 395.755 144.69 396.068 145.01 396.455C145.33 396.841 145.55 397.275 145.67 397.755C145.804 398.235 145.87 398.715 145.87 399.195V405.035H143.63V403.815ZM143.59 400.655H143.05C142.664 400.655 142.257 400.675 141.83 400.715C141.404 400.741 141.01 400.815 140.65 400.935C140.29 401.041 139.99 401.201 139.75 401.415C139.51 401.615 139.39 401.895 139.39 402.255C139.39 402.481 139.437 402.675 139.53 402.835C139.637 402.981 139.77 403.101 139.93 403.195C140.09 403.288 140.27 403.355 140.47 403.395C140.67 403.435 140.87 403.455 141.07 403.455C141.897 403.455 142.524 403.235 142.95 402.795C143.377 402.355 143.59 401.755 143.59 400.995V400.655ZM147.227 395.435H149.847L152.367 402.435H152.407L154.947 395.435H157.487L153.667 405.035H151.107L147.227 395.435ZM165.68 399.275C165.68 398.968 165.634 398.675 165.54 398.395C165.46 398.115 165.327 397.868 165.14 397.655C164.954 397.441 164.714 397.275 164.42 397.155C164.14 397.021 163.807 396.955 163.42 396.955C162.7 396.955 162.087 397.175 161.58 397.615C161.087 398.041 160.814 398.595 160.76 399.275H165.68ZM168.08 400.355C168.08 400.461 168.08 400.568 168.08 400.675C168.08 400.781 168.074 400.888 168.06 400.995H160.76C160.787 401.341 160.874 401.661 161.02 401.955C161.18 402.235 161.387 402.481 161.64 402.695C161.894 402.895 162.18 403.055 162.5 403.175C162.82 403.295 163.154 403.355 163.5 403.355C164.1 403.355 164.607 403.248 165.02 403.035C165.434 402.808 165.774 402.501 166.04 402.115L167.64 403.395C166.694 404.675 165.32 405.315 163.52 405.315C162.774 405.315 162.087 405.201 161.46 404.975C160.834 404.735 160.287 404.401 159.82 403.975C159.367 403.548 159.007 403.028 158.74 402.415C158.487 401.788 158.36 401.081 158.36 400.295C158.36 399.521 158.487 398.821 158.74 398.195C159.007 397.555 159.367 397.015 159.82 396.575C160.274 396.121 160.807 395.775 161.42 395.535C162.047 395.281 162.72 395.155 163.44 395.155C164.107 395.155 164.72 395.268 165.28 395.495C165.854 395.708 166.347 396.035 166.76 396.475C167.174 396.901 167.494 397.441 167.72 398.095C167.96 398.735 168.08 399.488 168.08 400.355ZM170.405 395.435H172.705V397.035H172.745C173.012 396.475 173.385 396.021 173.865 395.675C174.345 395.328 174.905 395.155 175.545 395.155C175.638 395.155 175.738 395.161 175.845 395.175C175.952 395.175 176.045 395.188 176.125 395.215V397.415C175.965 397.375 175.825 397.348 175.705 397.335C175.598 397.321 175.492 397.315 175.385 397.315C174.838 397.315 174.398 397.415 174.065 397.615C173.732 397.815 173.472 398.055 173.285 398.335C173.098 398.615 172.972 398.901 172.905 399.195C172.838 399.488 172.805 399.721 172.805 399.895V405.035H170.405V395.435ZM183.396 403.815H183.336C183.096 404.241 182.709 404.595 182.176 404.875C181.643 405.141 181.036 405.275 180.356 405.275C179.969 405.275 179.563 405.221 179.136 405.115C178.723 405.021 178.336 404.861 177.976 404.635C177.629 404.395 177.336 404.088 177.096 403.715C176.869 403.328 176.756 402.855 176.756 402.295C176.756 401.575 176.956 401.001 177.356 400.575C177.769 400.148 178.296 399.821 178.936 399.595C179.576 399.368 180.283 399.221 181.056 399.155C181.843 399.075 182.609 399.035 183.356 399.035V398.795C183.356 398.195 183.136 397.755 182.696 397.475C182.269 397.181 181.756 397.035 181.156 397.035C180.649 397.035 180.163 397.141 179.696 397.355C179.229 397.568 178.843 397.828 178.536 398.135L177.296 396.675C177.843 396.168 178.469 395.788 179.176 395.535C179.896 395.281 180.623 395.155 181.356 395.155C182.209 395.155 182.909 395.275 183.456 395.515C184.016 395.755 184.456 396.068 184.776 396.455C185.096 396.841 185.316 397.275 185.436 397.755C185.569 398.235 185.636 398.715 185.636 399.195V405.035H183.396V403.815ZM183.356 400.655H182.816C182.429 400.655 182.023 400.675 181.596 400.715C181.169 400.741 180.776 400.815 180.416 400.935C180.056 401.041 179.756 401.201 179.516 401.415C179.276 401.615 179.156 401.895 179.156 402.255C179.156 402.481 179.203 402.675 179.296 402.835C179.403 402.981 179.536 403.101 179.696 403.195C179.856 403.288 180.036 403.355 180.236 403.395C180.436 403.435 180.636 403.455 180.836 403.455C181.663 403.455 182.289 403.235 182.716 402.795C183.143 402.355 183.356 401.755 183.356 400.995V400.655ZM198.192 395.435V404.175C198.192 405.041 198.086 405.821 197.872 406.515C197.659 407.221 197.326 407.815 196.872 408.295C196.432 408.788 195.872 409.168 195.192 409.435C194.512 409.701 193.706 409.835 192.772 409.835C192.386 409.835 191.972 409.801 191.532 409.735C191.106 409.668 190.679 409.568 190.252 409.435C189.839 409.301 189.439 409.135 189.052 408.935C188.666 408.735 188.319 408.508 188.012 408.255L189.392 406.395C189.859 406.835 190.386 407.168 190.972 407.395C191.559 407.635 192.152 407.755 192.752 407.755C193.326 407.755 193.806 407.668 194.192 407.495C194.592 407.335 194.906 407.108 195.132 406.815C195.372 406.521 195.539 406.175 195.632 405.775C195.739 405.375 195.792 404.935 195.792 404.455V403.755H195.752C195.406 404.221 194.959 404.581 194.412 404.835C193.879 405.075 193.279 405.195 192.612 405.195C191.892 405.195 191.239 405.061 190.652 404.795C190.066 404.528 189.566 404.168 189.152 403.715C188.752 403.261 188.439 402.735 188.212 402.135C187.986 401.521 187.872 400.875 187.872 400.195C187.872 399.501 187.979 398.848 188.192 398.235C188.419 397.621 188.732 397.088 189.132 396.635C189.546 396.181 190.039 395.821 190.612 395.555C191.199 395.288 191.852 395.155 192.572 395.155C193.252 395.155 193.886 395.295 194.472 395.575C195.059 395.855 195.526 396.288 195.872 396.875H195.912V395.435H198.192ZM193.072 397.115C192.632 397.115 192.239 397.195 191.892 397.355C191.559 397.515 191.272 397.735 191.032 398.015C190.806 398.281 190.626 398.601 190.492 398.975C190.372 399.348 190.312 399.748 190.312 400.175C190.312 400.561 190.372 400.935 190.492 401.295C190.626 401.655 190.806 401.981 191.032 402.275C191.272 402.555 191.559 402.781 191.892 402.955C192.239 403.128 192.626 403.215 193.052 403.215C193.492 403.215 193.886 403.135 194.232 402.975C194.592 402.801 194.892 402.575 195.132 402.295C195.386 402.015 195.579 401.695 195.712 401.335C195.846 400.961 195.912 400.575 195.912 400.175C195.912 399.761 195.846 399.368 195.712 398.995C195.579 398.621 195.386 398.295 195.132 398.015C194.892 397.735 194.599 397.515 194.252 397.355C193.906 397.195 193.512 397.115 193.072 397.115ZM207.829 399.275C207.829 398.968 207.782 398.675 207.689 398.395C207.609 398.115 207.476 397.868 207.289 397.655C207.102 397.441 206.862 397.275 206.569 397.155C206.289 397.021 205.956 396.955 205.569 396.955C204.849 396.955 204.236 397.175 203.729 397.615C203.236 398.041 202.962 398.595 202.909 399.275H207.829ZM210.229 400.355C210.229 400.461 210.229 400.568 210.229 400.675C210.229 400.781 210.222 400.888 210.209 400.995H202.909C202.936 401.341 203.022 401.661 203.169 401.955C203.329 402.235 203.536 402.481 203.789 402.695C204.042 402.895 204.329 403.055 204.649 403.175C204.969 403.295 205.302 403.355 205.649 403.355C206.249 403.355 206.756 403.248 207.169 403.035C207.582 402.808 207.922 402.501 208.189 402.115L209.789 403.395C208.842 404.675 207.469 405.315 205.669 405.315C204.922 405.315 204.236 405.201 203.609 404.975C202.982 404.735 202.436 404.401 201.969 403.975C201.516 403.548 201.156 403.028 200.889 402.415C200.636 401.788 200.509 401.081 200.509 400.295C200.509 399.521 200.636 398.821 200.889 398.195C201.156 397.555 201.516 397.015 201.969 396.575C202.422 396.121 202.956 395.775 203.569 395.535C204.196 395.281 204.869 395.155 205.589 395.155C206.256 395.155 206.869 395.268 207.429 395.495C208.002 395.708 208.496 396.035 208.909 396.475C209.322 396.901 209.642 397.441 209.869 398.095C210.109 398.735 210.229 399.488 210.229 400.355Z" fill="black"/>
<path d="M326.56 144.875H335.7V147.075H329.08V150.955H335.32V153.075H329.08V159.035H326.56V144.875ZM343.708 153.275C343.708 152.968 343.661 152.675 343.568 152.395C343.488 152.115 343.354 151.868 343.168 151.655C342.981 151.441 342.741 151.275 342.448 151.155C342.168 151.021 341.834 150.955 341.448 150.955C340.728 150.955 340.114 151.175 339.608 151.615C339.114 152.041 338.841 152.595 338.788 153.275H343.708ZM346.108 154.355C346.108 154.461 346.108 154.568 346.108 154.675C346.108 154.781 346.101 154.888 346.088 154.995H338.788C338.814 155.341 338.901 155.661 339.048 155.955C339.208 156.235 339.414 156.481 339.668 156.695C339.921 156.895 340.208 157.055 340.528 157.175C340.848 157.295 341.181 157.355 341.528 157.355C342.128 157.355 342.634 157.248 343.048 157.035C343.461 156.808 343.801 156.501 344.068 156.115L345.668 157.395C344.721 158.675 343.348 159.315 341.548 159.315C340.801 159.315 340.114 159.201 339.488 158.975C338.861 158.735 338.314 158.401 337.848 157.975C337.394 157.548 337.034 157.028 336.768 156.415C336.514 155.788 336.388 155.081 336.388 154.295C336.388 153.521 336.514 152.821 336.768 152.195C337.034 151.555 337.394 151.015 337.848 150.575C338.301 150.121 338.834 149.775 339.448 149.535C340.074 149.281 340.748 149.155 341.468 149.155C342.134 149.155 342.748 149.268 343.308 149.495C343.881 149.708 344.374 150.035 344.788 150.475C345.201 150.901 345.521 151.441 345.748 152.095C345.988 152.735 346.108 153.488 346.108 154.355ZM359.892 149.155C360.519 149.155 361.052 149.268 361.492 149.495C361.946 149.708 362.312 149.995 362.592 150.355C362.886 150.715 363.099 151.128 363.232 151.595C363.366 152.061 363.432 152.541 363.432 153.035V159.035H361.032V153.715C361.032 153.435 361.012 153.141 360.972 152.835C360.932 152.528 360.846 152.255 360.712 152.015C360.579 151.761 360.392 151.555 360.152 151.395C359.926 151.235 359.619 151.155 359.232 151.155C358.859 151.155 358.539 151.235 358.272 151.395C358.006 151.555 357.786 151.761 357.612 152.015C357.439 152.268 357.312 152.555 357.232 152.875C357.152 153.181 357.112 153.488 357.112 153.795V159.035H354.712V153.235C354.712 152.635 354.566 152.141 354.272 151.755C353.992 151.355 353.546 151.155 352.932 151.155C352.572 151.155 352.259 151.235 351.992 151.395C351.726 151.541 351.506 151.735 351.332 151.975C351.172 152.215 351.046 152.495 350.952 152.815C350.872 153.121 350.832 153.435 350.832 153.755V159.035H348.432V149.435H350.712V150.975H350.752C350.859 150.735 350.999 150.508 351.172 150.295C351.359 150.081 351.572 149.888 351.812 149.715C352.066 149.541 352.352 149.408 352.672 149.315C352.992 149.208 353.346 149.155 353.732 149.155C354.479 149.155 355.099 149.321 355.592 149.655C356.086 149.988 356.466 150.428 356.732 150.975C357.052 150.388 357.479 149.941 358.012 149.635C358.546 149.315 359.172 149.155 359.892 149.155ZM372.185 157.815H372.125C371.885 158.241 371.498 158.595 370.965 158.875C370.432 159.141 369.825 159.275 369.145 159.275C368.758 159.275 368.352 159.221 367.925 159.115C367.512 159.021 367.125 158.861 366.765 158.635C366.418 158.395 366.125 158.088 365.885 157.715C365.658 157.328 365.545 156.855 365.545 156.295C365.545 155.575 365.745 155.001 366.145 154.575C366.558 154.148 367.085 153.821 367.725 153.595C368.365 153.368 369.072 153.221 369.845 153.155C370.632 153.075 371.398 153.035 372.145 153.035V152.795C372.145 152.195 371.925 151.755 371.485 151.475C371.058 151.181 370.545 151.035 369.945 151.035C369.438 151.035 368.952 151.141 368.485 151.355C368.018 151.568 367.632 151.828 367.325 152.135L366.085 150.675C366.632 150.168 367.258 149.788 367.965 149.535C368.685 149.281 369.412 149.155 370.145 149.155C370.998 149.155 371.698 149.275 372.245 149.515C372.805 149.755 373.245 150.068 373.565 150.455C373.885 150.841 374.105 151.275 374.225 151.755C374.358 152.235 374.425 152.715 374.425 153.195V159.035H372.185V157.815ZM372.145 154.655H371.605C371.218 154.655 370.812 154.675 370.385 154.715C369.958 154.741 369.565 154.815 369.205 154.935C368.845 155.041 368.545 155.201 368.305 155.415C368.065 155.615 367.945 155.895 367.945 156.255C367.945 156.481 367.992 156.675 368.085 156.835C368.192 156.981 368.325 157.101 368.485 157.195C368.645 157.288 368.825 157.355 369.025 157.395C369.225 157.435 369.425 157.455 369.625 157.455C370.452 157.455 371.078 157.235 371.505 156.795C371.932 156.355 372.145 155.755 372.145 154.995V154.655ZM377.261 143.915H379.661V159.035H377.261V143.915ZM389.333 153.275C389.333 152.968 389.286 152.675 389.193 152.395C389.113 152.115 388.979 151.868 388.793 151.655C388.606 151.441 388.366 151.275 388.073 151.155C387.793 151.021 387.459 150.955 387.073 150.955C386.353 150.955 385.739 151.175 385.233 151.615C384.739 152.041 384.466 152.595 384.413 153.275H389.333ZM391.733 154.355C391.733 154.461 391.733 154.568 391.733 154.675C391.733 154.781 391.726 154.888 391.713 154.995H384.413C384.439 155.341 384.526 155.661 384.673 155.955C384.833 156.235 385.039 156.481 385.293 156.695C385.546 156.895 385.833 157.055 386.153 157.175C386.473 157.295 386.806 157.355 387.153 157.355C387.753 157.355 388.259 157.248 388.673 157.035C389.086 156.808 389.426 156.501 389.693 156.115L391.293 157.395C390.346 158.675 388.973 159.315 387.173 159.315C386.426 159.315 385.739 159.201 385.113 158.975C384.486 158.735 383.939 158.401 383.473 157.975C383.019 157.548 382.659 157.028 382.393 156.415C382.139 155.788 382.013 155.081 382.013 154.295C382.013 153.521 382.139 152.821 382.393 152.195C382.659 151.555 383.019 151.015 383.473 150.575C383.926 150.121 384.459 149.775 385.073 149.535C385.699 149.281 386.373 149.155 387.093 149.155C387.759 149.155 388.373 149.268 388.933 149.495C389.506 149.708 389.999 150.035 390.413 150.475C390.826 150.901 391.146 151.441 391.373 152.095C391.613 152.735 391.733 153.488 391.733 154.355ZM405.017 157.815H404.957C404.717 158.241 404.331 158.595 403.797 158.875C403.264 159.141 402.657 159.275 401.977 159.275C401.591 159.275 401.184 159.221 400.757 159.115C400.344 159.021 399.957 158.861 399.597 158.635C399.251 158.395 398.957 158.088 398.717 157.715C398.491 157.328 398.377 156.855 398.377 156.295C398.377 155.575 398.577 155.001 398.977 154.575C399.391 154.148 399.917 153.821 400.557 153.595C401.197 153.368 401.904 153.221 402.677 153.155C403.464 153.075 404.231 153.035 404.977 153.035V152.795C404.977 152.195 404.757 151.755 404.317 151.475C403.891 151.181 403.377 151.035 402.777 151.035C402.271 151.035 401.784 151.141 401.317 151.355C400.851 151.568 400.464 151.828 400.157 152.135L398.917 150.675C399.464 150.168 400.091 149.788 400.797 149.535C401.517 149.281 402.244 149.155 402.977 149.155C403.831 149.155 404.531 149.275 405.077 149.515C405.637 149.755 406.077 150.068 406.397 150.455C406.717 150.841 406.937 151.275 407.057 151.755C407.191 152.235 407.257 152.715 407.257 153.195V159.035H405.017V157.815ZM404.977 154.655H404.437C404.051 154.655 403.644 154.675 403.217 154.715C402.791 154.741 402.397 154.815 402.037 154.935C401.677 155.041 401.377 155.201 401.137 155.415C400.897 155.615 400.777 155.895 400.777 156.255C400.777 156.481 400.824 156.675 400.917 156.835C401.024 156.981 401.157 157.101 401.317 157.195C401.477 157.288 401.657 157.355 401.857 157.395C402.057 157.435 402.257 157.455 402.457 157.455C403.284 157.455 403.911 157.235 404.337 156.795C404.764 156.355 404.977 155.755 404.977 154.995V154.655ZM408.613 149.435H411.233L413.753 156.435H413.793L416.333 149.435H418.873L415.053 159.035H412.493L408.613 149.435ZM427.067 153.275C427.067 152.968 427.021 152.675 426.927 152.395C426.847 152.115 426.714 151.868 426.527 151.655C426.341 151.441 426.101 151.275 425.807 151.155C425.527 151.021 425.194 150.955 424.807 150.955C424.087 150.955 423.474 151.175 422.967 151.615C422.474 152.041 422.201 152.595 422.147 153.275H427.067ZM429.467 154.355C429.467 154.461 429.467 154.568 429.467 154.675C429.467 154.781 429.461 154.888 429.447 154.995H422.147C422.174 155.341 422.261 155.661 422.407 155.955C422.567 156.235 422.774 156.481 423.027 156.695C423.281 156.895 423.567 157.055 423.887 157.175C424.207 157.295 424.541 157.355 424.887 157.355C425.487 157.355 425.994 157.248 426.407 157.035C426.821 156.808 427.161 156.501 427.427 156.115L429.027 157.395C428.081 158.675 426.707 159.315 424.907 159.315C424.161 159.315 423.474 159.201 422.847 158.975C422.221 158.735 421.674 158.401 421.207 157.975C420.754 157.548 420.394 157.028 420.127 156.415C419.874 155.788 419.747 155.081 419.747 154.295C419.747 153.521 419.874 152.821 420.127 152.195C420.394 151.555 420.754 151.015 421.207 150.575C421.661 150.121 422.194 149.775 422.807 149.535C423.434 149.281 424.107 149.155 424.827 149.155C425.494 149.155 426.107 149.268 426.667 149.495C427.241 149.708 427.734 150.035 428.147 150.475C428.561 150.901 428.881 151.441 429.107 152.095C429.347 152.735 429.467 153.488 429.467 154.355ZM431.792 149.435H434.092V151.035H434.132C434.398 150.475 434.772 150.021 435.252 149.675C435.732 149.328 436.292 149.155 436.932 149.155C437.025 149.155 437.125 149.161 437.232 149.175C437.338 149.175 437.432 149.188 437.512 149.215V151.415C437.352 151.375 437.212 151.348 437.092 151.335C436.985 151.321 436.878 151.315 436.772 151.315C436.225 151.315 435.785 151.415 435.452 151.615C435.118 151.815 434.858 152.055 434.672 152.335C434.485 152.615 434.358 152.901 434.292 153.195C434.225 153.488 434.192 153.721 434.192 153.895V159.035H431.792V149.435ZM444.783 157.815H444.723C444.483 158.241 444.096 158.595 443.563 158.875C443.029 159.141 442.423 159.275 441.743 159.275C441.356 159.275 440.949 159.221 440.523 159.115C440.109 159.021 439.723 158.861 439.363 158.635C439.016 158.395 438.723 158.088 438.483 157.715C438.256 157.328 438.143 156.855 438.143 156.295C438.143 155.575 438.343 155.001 438.743 154.575C439.156 154.148 439.683 153.821 440.323 153.595C440.963 153.368 441.669 153.221 442.443 153.155C443.229 153.075 443.996 153.035 444.743 153.035V152.795C444.743 152.195 444.523 151.755 444.083 151.475C443.656 151.181 443.143 151.035 442.543 151.035C442.036 151.035 441.549 151.141 441.083 151.355C440.616 151.568 440.229 151.828 439.923 152.135L438.683 150.675C439.229 150.168 439.856 149.788 440.563 149.535C441.283 149.281 442.009 149.155 442.743 149.155C443.596 149.155 444.296 149.275 444.843 149.515C445.403 149.755 445.843 150.068 446.163 150.455C446.483 150.841 446.703 151.275 446.823 151.755C446.956 152.235 447.023 152.715 447.023 153.195V159.035H444.783V157.815ZM444.743 154.655H444.203C443.816 154.655 443.409 154.675 442.983 154.715C442.556 154.741 442.163 154.815 441.803 154.935C441.443 155.041 441.143 155.201 440.903 155.415C440.663 155.615 440.543 155.895 440.543 156.255C440.543 156.481 440.589 156.675 440.683 156.835C440.789 156.981 440.923 157.101 441.083 157.195C441.243 157.288 441.423 157.355 441.623 157.395C441.823 157.435 442.023 157.455 442.223 157.455C443.049 157.455 443.676 157.235 444.103 156.795C444.529 156.355 444.743 155.755 444.743 154.995V154.655ZM459.579 149.435V158.175C459.579 159.041 459.472 159.821 459.259 160.515C459.046 161.221 458.712 161.815 458.259 162.295C457.819 162.788 457.259 163.168 456.579 163.435C455.899 163.701 455.092 163.835 454.159 163.835C453.772 163.835 453.359 163.801 452.919 163.735C452.492 163.668 452.066 163.568 451.639 163.435C451.226 163.301 450.826 163.135 450.439 162.935C450.052 162.735 449.706 162.508 449.399 162.255L450.779 160.395C451.246 160.835 451.772 161.168 452.359 161.395C452.946 161.635 453.539 161.755 454.139 161.755C454.712 161.755 455.192 161.668 455.579 161.495C455.979 161.335 456.292 161.108 456.519 160.815C456.759 160.521 456.926 160.175 457.019 159.775C457.126 159.375 457.179 158.935 457.179 158.455V157.755H457.139C456.792 158.221 456.346 158.581 455.799 158.835C455.266 159.075 454.666 159.195 453.999 159.195C453.279 159.195 452.626 159.061 452.039 158.795C451.452 158.528 450.952 158.168 450.539 157.715C450.139 157.261 449.826 156.735 449.599 156.135C449.372 155.521 449.259 154.875 449.259 154.195C449.259 153.501 449.366 152.848 449.579 152.235C449.806 151.621 450.119 151.088 450.519 150.635C450.932 150.181 451.426 149.821 451.999 149.555C452.586 149.288 453.239 149.155 453.959 149.155C454.639 149.155 455.272 149.295 455.859 149.575C456.446 149.855 456.912 150.288 457.259 150.875H457.299V149.435H459.579ZM454.459 151.115C454.019 151.115 453.626 151.195 453.279 151.355C452.946 151.515 452.659 151.735 452.419 152.015C452.192 152.281 452.012 152.601 451.879 152.975C451.759 153.348 451.699 153.748 451.699 154.175C451.699 154.561 451.759 154.935 451.879 155.295C452.012 155.655 452.192 155.981 452.419 156.275C452.659 156.555 452.946 156.781 453.279 156.955C453.626 157.128 454.012 157.215 454.439 157.215C454.879 157.215 455.272 157.135 455.619 156.975C455.979 156.801 456.279 156.575 456.519 156.295C456.772 156.015 456.966 155.695 457.099 155.335C457.232 154.961 457.299 154.575 457.299 154.175C457.299 153.761 457.232 153.368 457.099 152.995C456.966 152.621 456.772 152.295 456.519 152.015C456.279 151.735 455.986 151.515 455.639 151.355C455.292 151.195 454.899 151.115 454.459 151.115ZM469.216 153.275C469.216 152.968 469.169 152.675 469.076 152.395C468.996 152.115 468.862 151.868 468.676 151.655C468.489 151.441 468.249 151.275 467.956 151.155C467.676 151.021 467.342 150.955 466.956 150.955C466.236 150.955 465.622 151.175 465.116 151.615C464.622 152.041 464.349 152.595 464.296 153.275H469.216ZM471.616 154.355C471.616 154.461 471.616 154.568 471.616 154.675C471.616 154.781 471.609 154.888 471.596 154.995H464.296C464.322 155.341 464.409 155.661 464.556 155.955C464.716 156.235 464.922 156.481 465.176 156.695C465.429 156.895 465.716 157.055 466.036 157.175C466.356 157.295 466.689 157.355 467.036 157.355C467.636 157.355 468.142 157.248 468.556 157.035C468.969 156.808 469.309 156.501 469.576 156.115L471.176 157.395C470.229 158.675 468.856 159.315 467.056 159.315C466.309 159.315 465.622 159.201 464.996 158.975C464.369 158.735 463.822 158.401 463.356 157.975C462.902 157.548 462.542 157.028 462.276 156.415C462.022 155.788 461.896 155.081 461.896 154.295C461.896 153.521 462.022 152.821 462.276 152.195C462.542 151.555 462.902 151.015 463.356 150.575C463.809 150.121 464.342 149.775 464.956 149.535C465.582 149.281 466.256 149.155 466.976 149.155C467.642 149.155 468.256 149.268 468.816 149.495C469.389 149.708 469.882 150.035 470.296 150.475C470.709 150.901 471.029 151.441 471.256 152.095C471.496 152.735 471.616 153.488 471.616 154.355Z" fill="black"/>
<path d="M225 267.875H227.18L233.28 282.035H230.4L229.08 278.795H222.94L221.66 282.035H218.84L225 267.875ZM228.2 276.635L226.02 270.875L223.8 276.635H228.2ZM234.561 272.435H236.841V273.975H236.881C237.094 273.495 237.461 273.075 237.981 272.715C238.514 272.341 239.141 272.155 239.861 272.155C240.488 272.155 241.021 272.268 241.461 272.495C241.914 272.708 242.281 272.995 242.561 273.355C242.854 273.715 243.068 274.128 243.201 274.595C243.334 275.061 243.401 275.541 243.401 276.035V282.035H241.001V276.715C241.001 276.435 240.981 276.141 240.941 275.835C240.901 275.528 240.814 275.255 240.681 275.015C240.548 274.761 240.361 274.555 240.121 274.395C239.894 274.235 239.588 274.155 239.201 274.155C238.814 274.155 238.481 274.235 238.201 274.395C237.921 274.541 237.688 274.735 237.501 274.975C237.328 275.215 237.194 275.495 237.101 275.815C237.008 276.121 236.961 276.435 236.961 276.755V282.035H234.561V272.435ZM255.962 282.035H253.682V280.595H253.642C253.308 281.155 252.842 281.581 252.242 281.875C251.655 282.168 251.022 282.315 250.342 282.315C249.608 282.315 248.948 282.181 248.362 281.915C247.788 281.635 247.295 281.268 246.882 280.815C246.482 280.348 246.168 279.808 245.942 279.195C245.728 278.568 245.622 277.901 245.622 277.195C245.622 276.488 245.735 275.828 245.962 275.215C246.188 274.601 246.508 274.068 246.922 273.615C247.335 273.161 247.828 272.808 248.402 272.555C248.975 272.288 249.602 272.155 250.282 272.155C250.722 272.155 251.115 272.208 251.462 272.315C251.808 272.408 252.108 272.528 252.362 272.675C252.628 272.821 252.855 272.981 253.042 273.155C253.228 273.328 253.382 273.495 253.502 273.655H253.562V266.915H255.962V282.035ZM248.062 277.195C248.062 277.568 248.115 277.941 248.222 278.315C248.342 278.688 248.515 279.021 248.742 279.315C248.968 279.608 249.255 279.848 249.602 280.035C249.948 280.221 250.355 280.315 250.822 280.315C251.262 280.315 251.655 280.228 252.002 280.055C252.348 279.868 252.642 279.628 252.882 279.335C253.135 279.041 253.322 278.715 253.442 278.355C253.575 277.981 253.642 277.608 253.642 277.235C253.642 276.861 253.575 276.488 253.442 276.115C253.322 275.741 253.135 275.408 252.882 275.115C252.642 274.821 252.348 274.581 252.002 274.395C251.655 274.208 251.262 274.115 250.822 274.115C250.355 274.115 249.948 274.208 249.602 274.395C249.255 274.568 248.968 274.801 248.742 275.095C248.515 275.388 248.342 275.721 248.222 276.095C248.115 276.455 248.062 276.821 248.062 277.195ZM258.878 272.435H261.178V274.035H261.218C261.484 273.475 261.858 273.021 262.338 272.675C262.818 272.328 263.378 272.155 264.018 272.155C264.111 272.155 264.211 272.161 264.318 272.175C264.424 272.175 264.518 272.188 264.598 272.215V274.415C264.438 274.375 264.298 274.348 264.178 274.335C264.071 274.321 263.964 274.315 263.858 274.315C263.311 274.315 262.871 274.415 262.538 274.615C262.204 274.815 261.944 275.055 261.758 275.335C261.571 275.615 261.444 275.901 261.378 276.195C261.311 276.488 261.278 276.721 261.278 276.895V282.035H258.878V272.435ZM265.251 277.195C265.251 276.435 265.384 275.748 265.651 275.135C265.931 274.508 266.304 273.975 266.771 273.535C267.238 273.095 267.791 272.755 268.431 272.515C269.071 272.275 269.751 272.155 270.471 272.155C271.191 272.155 271.871 272.275 272.511 272.515C273.151 272.755 273.704 273.095 274.171 273.535C274.638 273.975 275.004 274.508 275.271 275.135C275.551 275.748 275.691 276.435 275.691 277.195C275.691 277.955 275.551 278.648 275.271 279.275C275.004 279.901 274.638 280.441 274.171 280.895C273.704 281.335 273.151 281.681 272.511 281.935C271.871 282.188 271.191 282.315 270.471 282.315C269.751 282.315 269.071 282.188 268.431 281.935C267.791 281.681 267.238 281.335 266.771 280.895C266.304 280.441 265.931 279.901 265.651 279.275C265.384 278.648 265.251 277.955 265.251 277.195ZM267.691 277.195C267.691 277.568 267.744 277.941 267.851 278.315C267.971 278.688 268.144 279.021 268.371 279.315C268.598 279.608 268.884 279.848 269.231 280.035C269.578 280.221 269.991 280.315 270.471 280.315C270.951 280.315 271.364 280.221 271.711 280.035C272.058 279.848 272.344 279.608 272.571 279.315C272.798 279.021 272.964 278.688 273.071 278.315C273.191 277.941 273.251 277.568 273.251 277.195C273.251 276.821 273.191 276.455 273.071 276.095C272.964 275.721 272.798 275.388 272.571 275.095C272.344 274.801 272.058 274.568 271.711 274.395C271.364 274.208 270.951 274.115 270.471 274.115C269.991 274.115 269.578 274.208 269.231 274.395C268.884 274.568 268.598 274.801 268.371 275.095C268.144 275.388 267.971 275.721 267.851 276.095C267.744 276.455 267.691 276.821 267.691 277.195ZM287.778 272.435V281.175C287.778 282.041 287.671 282.821 287.458 283.515C287.245 284.221 286.911 284.815 286.458 285.295C286.018 285.788 285.458 286.168 284.778 286.435C284.098 286.701 283.291 286.835 282.358 286.835C281.971 286.835 281.558 286.801 281.118 286.735C280.691 286.668 280.265 286.568 279.838 286.435C279.425 286.301 279.025 286.135 278.638 285.935C278.251 285.735 277.905 285.508 277.598 285.255L278.978 283.395C279.445 283.835 279.971 284.168 280.558 284.395C281.145 284.635 281.738 284.755 282.338 284.755C282.911 284.755 283.391 284.668 283.778 284.495C284.178 284.335 284.491 284.108 284.718 283.815C284.958 283.521 285.125 283.175 285.218 282.775C285.325 282.375 285.378 281.935 285.378 281.455V280.755H285.338C284.991 281.221 284.545 281.581 283.998 281.835C283.465 282.075 282.865 282.195 282.198 282.195C281.478 282.195 280.825 282.061 280.238 281.795C279.651 281.528 279.151 281.168 278.738 280.715C278.338 280.261 278.025 279.735 277.798 279.135C277.571 278.521 277.458 277.875 277.458 277.195C277.458 276.501 277.565 275.848 277.778 275.235C278.005 274.621 278.318 274.088 278.718 273.635C279.131 273.181 279.625 272.821 280.198 272.555C280.785 272.288 281.438 272.155 282.158 272.155C282.838 272.155 283.471 272.295 284.058 272.575C284.645 272.855 285.111 273.288 285.458 273.875H285.498V272.435H287.778ZM282.658 274.115C282.218 274.115 281.825 274.195 281.478 274.355C281.145 274.515 280.858 274.735 280.618 275.015C280.391 275.281 280.211 275.601 280.078 275.975C279.958 276.348 279.898 276.748 279.898 277.175C279.898 277.561 279.958 277.935 280.078 278.295C280.211 278.655 280.391 278.981 280.618 279.275C280.858 279.555 281.145 279.781 281.478 279.955C281.825 280.128 282.211 280.215 282.638 280.215C283.078 280.215 283.471 280.135 283.818 279.975C284.178 279.801 284.478 279.575 284.718 279.295C284.971 279.015 285.165 278.695 285.298 278.335C285.431 277.961 285.498 277.575 285.498 277.175C285.498 276.761 285.431 276.368 285.298 275.995C285.165 275.621 284.971 275.295 284.718 275.015C284.478 274.735 284.185 274.515 283.838 274.355C283.491 274.195 283.098 274.115 282.658 274.115ZM289.215 272.435H291.875L294.555 279.415H294.595L296.975 272.435H299.475L294.935 284.095C294.762 284.535 294.575 284.921 294.375 285.255C294.175 285.601 293.935 285.888 293.655 286.115C293.375 286.355 293.042 286.535 292.655 286.655C292.282 286.775 291.828 286.835 291.295 286.835C291.095 286.835 290.888 286.821 290.675 286.795C290.475 286.781 290.268 286.748 290.055 286.695L290.255 284.615C290.415 284.668 290.568 284.701 290.715 284.715C290.875 284.741 291.022 284.755 291.155 284.755C291.408 284.755 291.622 284.721 291.795 284.655C291.968 284.601 292.115 284.508 292.235 284.375C292.355 284.255 292.462 284.101 292.555 283.915C292.648 283.728 292.748 283.508 292.855 283.255L293.335 282.035L289.215 272.435ZM300.909 272.435H303.189V273.975H303.229C303.442 273.495 303.809 273.075 304.329 272.715C304.862 272.341 305.489 272.155 306.209 272.155C306.835 272.155 307.369 272.268 307.809 272.495C308.262 272.708 308.629 272.995 308.909 273.355C309.202 273.715 309.415 274.128 309.549 274.595C309.682 275.061 309.749 275.541 309.749 276.035V282.035H307.349V276.715C307.349 276.435 307.329 276.141 307.289 275.835C307.249 275.528 307.162 275.255 307.029 275.015C306.895 274.761 306.709 274.555 306.469 274.395C306.242 274.235 305.935 274.155 305.549 274.155C305.162 274.155 304.829 274.235 304.549 274.395C304.269 274.541 304.035 274.735 303.849 274.975C303.675 275.215 303.542 275.495 303.449 275.815C303.355 276.121 303.309 276.435 303.309 276.755V282.035H300.909V272.435ZM311.109 272.435H313.769L316.449 279.415H316.489L318.869 272.435H321.369L316.829 284.095C316.656 284.535 316.469 284.921 316.269 285.255C316.069 285.601 315.829 285.888 315.549 286.115C315.269 286.355 314.936 286.535 314.549 286.655C314.176 286.775 313.723 286.835 313.189 286.835C312.989 286.835 312.783 286.821 312.569 286.795C312.369 286.781 312.163 286.748 311.949 286.695L312.149 284.615C312.309 284.668 312.463 284.701 312.609 284.715C312.769 284.741 312.916 284.755 313.049 284.755C313.303 284.755 313.516 284.721 313.689 284.655C313.863 284.601 314.009 284.508 314.129 284.375C314.249 284.255 314.356 284.101 314.449 283.915C314.543 283.728 314.643 283.508 314.749 283.255L315.229 282.035L311.109 272.435Z" fill="black"/>
<line x1="271.984" y1="0.000439514" x2="271.5" y2="551.035" stroke="black"/>
<line y1="278.535" x2="552" y2="278.535" stroke="black"/>
<defs>
<linearGradient id="paint0_linear_1426_1599" x1="-1.97159e-07" y1="409.535" x2="621.5" y2="136.035" gradientUnits="userSpaceOnUse">
<stop stop-color="#79A0D9"/>
<stop offset="0.336538" stop-color="#759FD9"/>
<stop offset="0.475962" stop-color="#B5A1D4"/>
<stop offset="0.645416" stop-color="#F3ABAF"/>
<stop offset="1" stop-color="#F3ABAF"/>
</linearGradient>
</defs>
</svg>
